<svg width="76" height="27" viewBox="0 0 76 27" fill="none" xmlns="http://www.w3.org/2000/svg">
<path d="M12.3363 3.7844C12.3363 4.80327 11.5285 5.6038 10.5005 5.6038C9.47248 5.6038 8.66475 4.80327 8.66475 3.7844C8.66475 2.76553 9.47248 1.96499 10.5005 1.96499C11.5285 2.03777 12.3363 2.83831 12.3363 3.7844ZM11.0145 2.18332L10.9411 2.61998C11.0145 2.61998 11.1614 2.69275 11.2348 2.76553L11.4551 2.40165C11.3082 2.2561 11.1614 2.18332 11.0145 2.18332ZM10.5739 15.7197C9.91306 15.7197 9.39905 16.2291 9.39905 16.8841C9.39905 17.5391 9.91306 18.0485 10.5739 18.0485C11.2348 18.0485 11.7488 17.5391 11.7488 16.8841C11.7488 16.2291 11.2348 15.7197 10.5739 15.7197ZM10.4271 2.11054L10.5005 2.5472H10.5739C10.7208 2.5472 10.7942 2.5472 10.8677 2.5472V2.18332C10.7208 2.18332 10.6474 2.11054 10.5005 2.11054H10.4271ZM9.83963 2.2561L9.91306 2.47442L9.98649 2.61998C10.0599 2.5472 10.2068 2.5472 10.3536 2.5472L10.2802 2.11054C10.2068 2.11054 10.0599 2.18332 9.83963 2.2561C9.91306 2.2561 9.83963 2.2561 9.83963 2.2561ZM9.32562 2.61998L9.69277 2.91108L9.7662 2.83831C9.83963 2.83831 9.83963 2.76553 9.91306 2.76553L9.83963 2.61998L9.7662 2.40165C9.69277 2.40165 9.69277 2.47442 9.61934 2.47442C9.47248 2.47442 9.39905 2.5472 9.32562 2.61998ZM9.0319 2.98386L9.39905 3.20219C9.47248 3.12941 9.54591 3.05663 9.54591 2.91108L9.17876 2.61998C9.10533 2.69275 9.10533 2.76553 9.0319 2.83831C9.10533 2.91108 9.0319 2.98386 9.0319 2.98386ZM8.88504 3.49329L9.32562 3.56607C9.32562 3.49329 9.39905 3.42052 9.39905 3.27496L9.0319 3.05663C8.95847 3.20219 8.88504 3.34774 8.88504 3.49329ZM8.81161 4.0755L9.25219 4.00273C9.25219 3.92995 9.25219 3.85717 9.25219 3.85717C9.25219 3.7844 9.25219 3.7844 9.25219 3.71162L8.81161 3.63884C8.81161 3.71162 8.81161 3.7844 8.81161 3.85717C8.81161 3.85717 8.81161 4.00273 8.81161 4.0755ZM12.2628 3.7844C12.2628 3.20219 11.9691 2.69275 11.4551 2.40165L11.2348 2.76553C11.602 2.98386 11.8222 3.34774 11.8222 3.7844C11.8222 4.51216 11.2348 5.02159 10.5739 5.02159C9.98649 5.02159 9.47248 4.58494 9.32562 4.00273L8.88504 4.0755C9.0319 4.87604 9.7662 5.45825 10.5739 5.45825C11.4551 5.53103 12.2628 4.73049 12.2628 3.7844ZM13.5846 16.7386C13.658 16.8114 13.658 16.9569 13.5846 17.0297C13.5846 17.0297 13.5111 17.1752 13.2174 17.248H12.7768C12.7768 17.3936 12.63 17.8302 12.4097 18.1941L12.7768 18.558C12.7768 18.558 12.8503 18.7763 12.7768 18.9219C12.7034 18.9946 12.5565 19.1402 12.4097 19.1402C12.3363 19.1402 12.2628 19.1402 12.1894 19.0674L11.8222 18.7035C11.7488 18.7763 11.3817 18.9946 10.8677 19.1402V19.6496C10.8677 19.7224 10.7208 19.9407 10.5005 19.9407C10.5005 19.9407 10.2068 19.9407 10.1334 19.6496V19.213C9.98649 19.213 9.54591 19.1402 9.10533 18.8491L8.81161 19.1402C8.81161 19.1402 8.73818 19.213 8.59132 19.213C8.51789 19.213 8.37104 19.1402 8.29761 19.0674C8.15075 18.8491 8.22418 18.7035 8.29761 18.6308L8.59132 18.3397C8.51789 18.1941 8.22418 17.8302 8.15075 17.3208H7.71017C7.71017 17.3208 7.34302 17.248 7.48988 16.8114C7.48988 16.8114 7.56331 16.593 7.7836 16.593H8.15075C8.15075 16.4475 8.2976 15.938 8.59132 15.5742L8.29761 15.283C8.22418 15.1375 8.22418 14.9192 8.44446 14.7736C8.44446 14.7736 8.51789 14.7008 8.59132 14.7008C8.66475 14.7008 8.81161 14.7008 8.88504 14.8464L9.10533 15.0647C9.25219 14.9919 9.61934 14.7008 10.1334 14.7008V14.1914C10.1334 14.1914 10.1334 13.9731 10.3536 13.9003H10.4271C10.6474 13.9003 10.7942 14.0459 10.7942 14.1914C10.7942 14.2642 10.7942 14.5553 10.7942 14.7008C10.9411 14.7008 11.3817 14.8464 11.7488 15.1375L12.116 14.7736C12.116 14.7736 12.2628 14.7008 12.3363 14.7008C12.4097 14.7008 12.5565 14.7736 12.63 14.8464C12.63 14.8464 12.7034 14.9192 12.7034 15.0647C12.7034 15.1375 12.63 15.283 12.5565 15.3558C12.4097 15.5014 12.2628 15.5742 12.2628 15.6469C12.3363 15.7925 12.63 16.2291 12.63 16.593H13.2174C13.3643 16.5202 13.5111 16.593 13.5846 16.7386ZM13.5111 3.71162C13.4377 3.63884 13.3643 3.56607 13.3643 3.56607H12.7034V3.49329C12.7034 3.05663 12.3363 2.5472 12.3363 2.5472C12.3363 2.5472 12.4097 2.47442 12.63 2.2561C12.8503 2.03777 12.7034 1.89221 12.7034 1.89221C12.63 1.81944 12.5565 1.81944 12.4831 1.81944C12.4097 1.81944 12.3363 1.89221 12.3363 1.89221L11.8957 2.32887C11.5285 1.96499 10.9411 1.89221 10.9411 1.89221H10.8677V1.81944C10.8677 1.81944 10.8677 1.38278 10.8677 1.31C10.8677 1.23723 10.7208 1.09167 10.5739 1.09167H10.5005C10.3536 1.16445 10.3536 1.31 10.3536 1.31V1.89221H10.2802C9.69277 1.96499 9.25219 2.2561 9.25219 2.2561L8.95847 1.96499C8.88504 1.89221 8.81161 1.81944 8.73818 1.81944C8.66475 1.81944 8.66475 1.81944 8.66475 1.81944C8.44446 1.96499 8.5179 2.18332 8.5179 2.18332L8.81161 2.40165C8.44446 2.83831 8.37103 3.42052 8.37103 3.42052V3.49329H7.93046C7.7836 3.49329 7.71017 3.63884 7.71017 3.63884C7.63674 3.92995 7.85703 4.00273 7.85703 4.00273H8.37103V4.0755C8.44446 4.65771 8.81161 5.16715 8.81161 5.16715L8.44446 5.53103C8.44446 5.53103 8.2976 5.67658 8.44446 5.89491C8.51789 5.96769 8.59132 5.96769 8.66475 5.96769C8.73818 5.96769 8.81161 5.89491 8.81161 5.89491L9.17876 5.53103C9.7662 5.89491 10.2802 5.96769 10.2802 5.96769H10.3536V6.5499C10.4271 6.76822 10.5739 6.76822 10.6474 6.76822C10.8677 6.76822 10.9411 6.5499 10.9411 6.5499V5.96769H11.0145C11.602 5.82213 11.9691 5.53103 11.9691 5.53103L12.3363 5.96769C12.4097 6.04046 12.4831 6.04046 12.4831 6.04046C12.63 6.04046 12.7034 5.96769 12.7768 5.89491C12.8503 5.82213 12.7768 5.67658 12.7768 5.67658L12.3363 5.09437C12.63 4.73049 12.7034 4.14828 12.7034 4.14828V4.0755H13.2174C13.4377 4.0755 13.5111 3.92995 13.5111 3.92995C13.5846 3.85717 13.5846 3.7844 13.5111 3.71162ZM10.5005 16.1564C10.9411 16.1564 11.2348 16.4475 11.2348 16.8841C11.2348 17.3208 10.9411 17.6119 10.5005 17.6119C10.0599 17.6119 9.7662 17.3208 9.7662 16.8841C9.7662 16.5202 10.1334 16.1564 10.5005 16.1564ZM10.5005 3.12941C10.1334 3.12941 9.83963 3.42052 9.83963 3.7844C9.83963 4.14828 10.1334 4.43938 10.5005 4.43938C10.8677 4.43938 11.1614 4.14828 11.1614 3.7844C11.1614 3.42052 10.8677 3.12941 10.5005 3.12941ZM9.91306 3.7844C9.91306 4.14828 10.2068 4.43938 10.5739 4.43938C10.9411 4.43938 11.2348 4.14828 11.2348 3.7844C11.2348 3.42052 10.9411 3.12941 10.5739 3.12941C10.2068 3.12941 9.91306 3.42052 9.91306 3.7844Z" fill="white"/>
<path d="M2.12952 1.89219C2.20295 1.89219 2.20295 1.89219 2.27638 1.89219C2.34981 1.89219 2.34981 1.89219 2.42324 1.89219C2.42324 1.67386 2.49667 1.52831 2.5701 1.52831H2.64353C2.86382 1.45553 3.23097 1.67386 3.67155 2.11052C3.74498 2.03774 3.81841 1.96497 3.89184 1.89219C3.45126 1.45553 3.08411 1.16443 2.71696 1.16443C2.64353 1.16443 2.49667 1.16443 2.42324 1.23721C2.20295 1.30998 2.12952 1.60109 2.12952 1.89219Z" fill="white"/>
<path d="M3.81843 2.69275C3.745 2.8383 3.67157 2.91108 3.59814 2.98385C3.67157 2.98385 3.745 2.98385 3.89186 2.98385H3.96529C4.11215 2.98385 4.18558 2.98385 4.33244 2.98385C4.18558 2.91108 4.11215 2.8383 4.03872 2.69275C3.96529 2.69275 3.96529 2.69275 3.81843 2.69275Z" fill="white"/>
<path d="M5.06668 3.12938C5.06668 2.98383 5.14011 2.91106 5.14011 2.83828C4.99325 2.83828 4.84639 2.7655 4.6261 2.7655C4.69953 2.91106 4.77296 2.98383 4.84639 3.12938C4.91982 3.05661 4.99325 3.12938 5.06668 3.12938Z" fill="white"/>
<path d="M4.1855 2.2561C4.11207 2.32888 4.03864 2.40166 3.96521 2.47443C4.1855 2.76554 4.40579 3.05664 4.62608 3.42052C4.69951 3.4933 4.69951 3.63885 4.77294 3.71163C4.84637 3.56608 4.9198 3.4933 4.9198 3.34775C4.9198 3.27497 4.84637 3.27497 4.84637 3.2022C4.69951 2.91109 4.40579 2.54721 4.1855 2.2561Z" fill="white"/>
<path d="M2.4966 2.61993C2.42317 2.61993 2.34974 2.69271 2.27631 2.69271C2.27631 2.69271 2.27631 2.69271 2.20288 2.69271C2.34974 3.20214 2.64346 3.78435 2.93718 4.36656L3.01061 4.43934C3.15747 4.43934 3.2309 4.43934 3.37776 4.51212C3.30433 4.43934 3.30433 4.29379 3.2309 4.22101C2.86375 3.6388 2.64346 3.05659 2.4966 2.61993Z" fill="white"/>
<path d="M2.42322 4.36659C2.49665 4.36659 2.64351 4.43937 2.71694 4.43937C2.71694 4.36659 2.79037 4.36659 2.79037 4.29381C2.71694 4.14826 2.64351 4.07548 2.57008 3.92993C2.57008 4.07548 2.49665 4.22104 2.42322 4.36659Z" fill="white"/>
<path d="M2.93715 3.05663C3.01058 2.91108 3.08401 2.8383 3.15744 2.69275C3.01058 2.69275 2.86372 2.69275 2.64343 2.76553C2.64343 2.8383 2.71686 2.98385 2.71686 3.05663C2.86372 3.05663 2.86372 3.05663 2.93715 3.05663Z" fill="white"/>
<path d="M2.27639 2.61995C2.42325 2.61995 2.57011 2.4744 2.57011 2.32885C2.57011 2.18329 2.42325 1.96497 2.27639 1.96497C2.12953 1.96497 1.98267 2.11052 1.98267 2.25607C1.98267 2.40162 2.0561 2.61995 2.27639 2.61995Z" fill="white"/>
<path d="M3.89185 4.9488C3.96528 4.9488 4.03871 4.9488 4.03871 4.9488C4.11214 4.87602 4.18557 4.73047 4.259 4.65769C4.18557 4.65769 4.03871 4.65769 3.96528 4.65769H3.89185C3.15755 4.65769 2.42325 4.58491 1.90924 4.36658C1.39524 4.14826 1.17495 4.0027 1.17495 3.85715C1.17495 3.63882 1.61553 3.42049 2.27639 3.27494C2.27639 3.20216 2.20296 2.83828 2.20296 2.91106C1.46867 3.05661 0.881226 3.34772 0.881226 3.78437C0.881226 4.0027 1.02809 4.36658 1.83581 4.58491C2.42325 4.80324 3.08412 4.9488 3.89185 4.9488Z" fill="white"/>
<path d="M3.67153 5.38543C3.74496 5.31265 3.81839 5.23987 3.89182 5.1671C3.81839 5.09432 3.74496 5.09432 3.74496 5.02155C3.5981 5.02155 3.45124 5.02155 3.37781 5.02155C3.45124 5.09432 3.52467 5.23987 3.67153 5.38543Z" fill="white"/>
<path d="M3.08407 6.33154C2.93721 6.33154 2.86378 6.18599 2.86378 6.11321C2.79035 6.11321 2.71692 6.11321 2.71692 6.11321C2.64349 6.11321 2.64349 6.11321 2.64349 6.11321C2.49663 6.04044 2.34977 5.74933 2.49663 5.2399C2.49663 5.16712 2.57006 5.02157 2.57006 4.94879C2.49663 4.94879 2.49663 4.94879 2.4232 4.94879C2.34977 4.94879 2.34977 4.94879 2.27634 4.94879C2.20291 4.94879 2.20291 5.09434 2.20291 5.16712C2.05605 5.96766 2.20291 6.25876 2.4232 6.40432C2.49663 6.47709 2.57006 6.47709 2.71692 6.47709C2.79035 6.40432 2.93721 6.40432 3.08407 6.33154Z" fill="white"/>
<path d="M3.598 5.96768C3.598 5.82213 3.45114 5.67657 3.30428 5.67657C3.15742 5.67657 2.93713 5.82213 2.93713 5.96768C2.93713 6.11323 3.08399 6.25879 3.23085 6.25879C3.37771 6.25879 3.598 6.18601 3.598 5.96768Z" fill="white"/>
<path d="M4.91981 4.36659C5.28696 3.7116 5.58068 2.98384 5.72754 2.40163C5.80097 1.96497 5.80097 1.38276 5.50725 1.16443C5.36039 1.16443 5.28696 1.16443 5.1401 1.16443C4.47923 1.16443 3.59807 2.1833 2.9372 3.27494C2.9372 3.27494 2.9372 3.34772 2.86377 3.34772C2.9372 3.49327 3.01063 3.56605 3.08406 3.7116C3.08406 3.63882 3.15749 3.49327 3.23092 3.42049C3.96522 2.11052 4.77295 1.45553 5.1401 1.45553C5.21353 1.45553 5.21353 1.45553 5.21353 1.45553C5.36039 1.52831 5.43382 1.89219 5.28696 2.40163C5.28696 2.91106 4.99324 3.56605 4.62609 4.22103C4.25894 4.87602 3.89179 5.38545 3.52464 5.67656C3.59807 5.74933 3.6715 5.82211 3.6715 5.89489C4.11208 5.53101 4.55266 4.9488 4.91981 4.36659Z" fill="white"/>
<path d="M5.14016 4.80325C5.14016 4.73048 5.06673 4.58492 5.06673 4.51215C4.9933 4.51215 4.9933 4.51215 4.91987 4.51215C4.84644 4.6577 4.77301 4.80325 4.69958 4.87603C4.84644 4.87603 4.9933 4.87603 5.14016 4.80325Z" fill="white"/>
<path d="M5.6541 5.16713C5.58067 4.80325 5.43381 4.36659 5.21352 3.92993C5.14009 4.07548 5.14009 4.14826 5.06666 4.29381C5.21352 4.65769 5.28695 4.9488 5.36038 5.2399C5.43381 5.82211 5.36038 6.04044 5.28695 6.11322H5.21352C4.99323 6.11322 4.62608 5.89489 4.25893 5.53101C4.11207 5.60379 4.03864 5.67656 3.96521 5.74934C4.40579 6.186 4.77294 6.4771 5.14009 6.4771C5.21352 6.4771 5.36038 6.4771 5.43381 6.40433C5.58067 6.25877 5.80096 5.96767 5.6541 5.16713Z" fill="white"/>
<path d="M5.94778 4.65768C5.87435 4.58491 5.87435 4.51213 5.87435 4.36658C5.72749 4.36658 5.65406 4.43935 5.5072 4.43935C5.58063 4.51213 5.58063 4.65768 5.58063 4.73046C5.72749 4.73046 5.87435 4.65768 5.94778 4.65768Z" fill="white"/>
<path d="M6.60875 4.36661C6.60875 4.22105 6.46189 4.0755 6.31503 4.0755C6.09474 4.0755 5.94788 4.22105 5.94788 4.36661C5.94788 4.51216 6.09474 4.65771 6.2416 4.65771C6.46189 4.73049 6.60875 4.58494 6.60875 4.36661Z" fill="white"/>
<path d="M6.90243 3.85716C6.90243 3.63883 6.75557 3.27495 5.94784 3.05662C5.87441 2.98385 5.72755 2.91107 5.65412 2.91107C5.65412 2.98385 5.58069 3.1294 5.58069 3.20218C5.72755 3.20218 5.80098 3.27495 5.87441 3.27495C6.38842 3.49328 6.60871 3.63883 6.60871 3.78439C6.60871 3.85716 6.60871 3.92994 6.53528 4.00272C6.60871 4.07549 6.68214 4.14827 6.68214 4.29382C6.829 4.14827 6.90243 4.00272 6.90243 3.85716Z" fill="white"/>
<path d="M3.59912 3.85716C3.59912 4.00271 3.74598 4.14826 3.89284 4.14826C4.0397 4.14826 4.18656 4.00271 4.18656 3.85716C4.18656 3.7116 4.0397 3.56605 3.89284 3.56605C3.74598 3.49327 3.59912 3.63883 3.59912 3.85716Z" fill="white"/>
<path d="M15.4203 1.89223C15.4937 1.89223 15.4937 1.89223 15.5671 1.89223C15.6406 1.89223 15.6406 1.89223 15.714 1.89223C15.714 1.6739 15.7874 1.52835 15.8609 1.52835H15.9343C16.1546 1.52835 16.5217 1.74668 16.8889 2.18334C16.9623 2.11056 17.0357 2.03778 17.1092 1.96501C16.742 1.52835 16.3014 1.23724 15.9343 1.23724C15.8609 1.23724 15.714 1.23724 15.6406 1.31002C15.4937 1.31002 15.4203 1.60112 15.4203 1.89223Z" fill="white"/>
<path d="M17.1826 2.69275C17.1826 2.69275 17.1092 2.69275 17.1826 2.69275C17.0358 2.8383 16.9623 2.91108 16.8889 2.98385C16.9623 2.98385 17.0358 2.98385 17.1826 2.98385H17.2561C17.4029 2.98385 17.4764 2.98385 17.6232 2.98385C17.5498 2.8383 17.4764 2.76553 17.4029 2.69275C17.3295 2.69275 17.2561 2.69275 17.1826 2.69275Z" fill="white"/>
<path d="M18.3574 3.12938C18.4309 3.05661 18.4309 2.91106 18.4309 2.83828C18.284 2.83828 18.1372 2.7655 17.9169 2.7655C17.9903 2.91106 18.0637 2.98383 18.1372 3.12938C18.284 3.05661 18.284 3.12938 18.3574 3.12938Z" fill="white"/>
<path d="M17.4763 2.2561C17.4028 2.32888 17.3294 2.40166 17.256 2.47443C17.4763 2.76554 17.6966 3.05664 17.9169 3.42052C17.9903 3.4933 18.0637 3.63885 18.0637 3.71163C18.1371 3.56608 18.2106 3.4933 18.2106 3.34775C18.2106 3.27497 18.1371 3.27497 18.1371 3.2022C17.9903 2.91109 17.77 2.54721 17.4763 2.2561Z" fill="white"/>
<path d="M15.8609 2.61993C15.7874 2.69271 15.714 2.69271 15.6406 2.69271C15.6406 2.69271 15.6406 2.69271 15.5671 2.69271C15.714 3.20214 15.9343 3.78435 16.3014 4.36656C16.3014 4.43934 16.3749 4.43934 16.3749 4.51212C16.5217 4.51212 16.5952 4.51212 16.742 4.58489C16.6686 4.51212 16.5952 4.36656 16.5952 4.29379C16.228 3.6388 16.0077 3.05659 15.8609 2.61993Z" fill="white"/>
<path d="M15.714 4.36659C15.7874 4.36659 15.9343 4.43937 16.0077 4.43937C16.0077 4.36659 16.0811 4.36659 16.0811 4.29381C16.0077 4.14826 15.9343 4.07548 15.8608 3.92993C15.8608 4.07548 15.7874 4.22104 15.714 4.36659Z" fill="white"/>
<path d="M16.3014 3.05663C16.3748 2.91108 16.4483 2.8383 16.5217 2.69275C16.3748 2.69275 16.228 2.69275 16.0077 2.76553C16.0077 2.8383 16.0811 2.98385 16.0811 3.05663C16.1545 3.05663 16.228 3.05663 16.3014 3.05663Z" fill="white"/>
<path d="M15.5672 2.61993C15.714 2.61993 15.8609 2.47438 15.8609 2.32882C15.8609 2.18327 15.714 2.03772 15.5672 2.03772C15.4203 2.03772 15.2734 2.18327 15.2734 2.32882C15.2734 2.47438 15.4203 2.61993 15.5672 2.61993Z" fill="white"/>
<path d="M17.256 4.94879C17.3295 4.94879 17.4029 4.94879 17.4029 4.94879C17.4763 4.87601 17.5498 4.73046 17.6232 4.65768C17.5498 4.65768 17.4029 4.65768 17.3295 4.65768H17.256C16.5217 4.65768 15.7874 4.5849 15.2734 4.36658C14.7594 4.14825 14.5391 4.00269 14.5391 3.85714C14.5391 3.63881 14.9797 3.42048 15.6406 3.27493L15.5672 2.98383C14.8329 3.12938 14.3188 3.49326 14.3188 3.85714C14.3188 4.07547 14.4657 4.43935 15.2734 4.65768C15.714 4.80323 16.4483 4.94879 17.256 4.94879Z" fill="white"/>
<path d="M16.9623 5.38543C17.0357 5.31265 17.1092 5.23987 17.1826 5.1671C17.1092 5.09432 17.1092 5.09432 17.0357 5.02155C16.8889 5.02155 16.742 5.02155 16.6686 5.02155C16.742 5.09432 16.8889 5.23987 16.9623 5.38543Z" fill="white"/>
<path d="M16.3748 6.33156C16.3014 6.25879 16.228 6.18601 16.1545 6.04046C16.0811 6.04046 16.0077 6.04046 16.0077 6.04046C15.9343 6.04046 15.9343 6.04046 15.9343 6.04046C15.7874 5.96768 15.714 5.67658 15.8608 5.16714C15.8608 5.09437 15.9343 4.94881 15.9343 4.87604C15.8608 4.87604 15.8608 4.87604 15.7874 4.87604C15.714 4.87604 15.714 4.87604 15.6405 4.87604C15.6405 4.94881 15.5671 5.09437 15.5671 5.16714C15.4202 5.96768 15.6405 6.25879 15.7874 6.40434C15.8608 6.47712 15.9343 6.47712 16.0811 6.47712C16.1545 6.40434 16.228 6.40434 16.3748 6.33156Z" fill="white"/>
<path d="M16.9623 5.96768C16.9623 5.82213 16.8155 5.67657 16.6686 5.67657C16.5217 5.67657 16.3749 5.82213 16.3749 5.96768C16.3749 6.11323 16.5217 6.25879 16.6686 6.25879C16.8155 6.33156 16.9623 6.18601 16.9623 5.96768Z" fill="white"/>
<path d="M18.2106 4.36659C18.5777 3.7116 18.8714 2.98384 19.0183 2.40163C19.0917 1.96497 19.0917 1.38276 18.7246 1.23721C18.6512 1.16443 18.5777 1.16443 18.4309 1.16443C17.77 1.16443 16.8154 2.1833 16.228 3.27494C16.228 3.34772 16.1545 3.34772 16.1545 3.42049C16.228 3.56605 16.228 3.63882 16.3014 3.78438C16.3748 3.7116 16.4483 3.56605 16.4483 3.49327C17.1826 2.25607 17.9903 1.52831 18.3574 1.52831C18.4309 1.52831 18.4309 1.52831 18.4309 1.52831C18.5777 1.60109 18.6512 1.96497 18.5043 2.4744C18.3574 2.98384 18.1372 3.63882 17.77 4.29381C17.4029 4.9488 17.0357 5.45823 16.6686 5.74934C16.742 5.82211 16.8154 5.89489 16.8154 6.04044C17.4763 5.53101 17.9169 4.9488 18.2106 4.36659Z" fill="white"/>
<path d="M18.5043 4.80325C18.5043 4.73048 18.4309 4.58492 18.4309 4.51215C18.3574 4.51215 18.3574 4.51215 18.284 4.51215C18.2106 4.6577 18.1372 4.73048 18.0637 4.87603C18.1372 4.87603 18.284 4.87603 18.5043 4.80325Z" fill="white"/>
<path d="M18.9449 5.16713C18.8714 4.80325 18.7246 4.36659 18.5043 3.92993C18.4309 4.07548 18.3574 4.14826 18.284 4.29381C18.4309 4.65769 18.5043 4.9488 18.5777 5.2399C18.6512 5.82212 18.5777 6.04044 18.5043 6.11322H18.4309C18.2106 6.11322 17.8434 5.89489 17.4763 5.53101C17.4028 5.60379 17.3294 5.67656 17.256 5.74934C17.6231 6.186 18.0637 6.40433 18.4309 6.40433C18.5043 6.40433 18.6512 6.40433 18.7246 6.33155C18.9449 6.25877 19.1652 5.96767 18.9449 5.16713Z" fill="white"/>
<path d="M19.3121 4.65768C19.2387 4.58491 19.2387 4.51213 19.2387 4.36658C19.1652 4.36658 19.0184 4.43935 18.9449 4.43935C19.0184 4.51213 19.0184 4.65768 19.0184 4.73046C19.0918 4.73046 19.1652 4.65768 19.3121 4.65768Z" fill="white"/>
<path d="M19.8995 4.36661C19.8995 4.22105 19.7526 4.0755 19.6057 4.0755C19.4589 4.0755 19.312 4.22105 19.312 4.36661C19.312 4.51216 19.4589 4.65771 19.6057 4.65771C19.7526 4.73049 19.8995 4.58494 19.8995 4.36661Z" fill="white"/>
<path d="M20.2666 3.85716C20.2666 3.63884 20.1198 3.27495 19.312 3.05662C19.1652 2.98385 19.0917 2.91107 18.9449 2.91107C18.9449 2.98385 18.8715 3.1294 18.8715 3.20218C19.0183 3.20218 19.0917 3.27495 19.1652 3.27495C19.6792 3.49328 19.8995 3.63883 19.8995 3.78439C19.8995 3.85716 19.8995 3.92994 19.826 4.00272C19.8995 4.07549 19.9729 4.14827 20.0463 4.22105C20.1198 4.14827 20.2666 4.00272 20.2666 3.85716Z" fill="white"/>
<path d="M16.9623 3.85716C16.9623 4.00271 17.1091 4.14826 17.256 4.14826C17.4029 4.14826 17.5497 4.00271 17.5497 3.85716C17.5497 3.7116 17.4029 3.56605 17.256 3.56605C17.1091 3.49327 16.9623 3.63883 16.9623 3.85716Z" fill="white"/>
<path d="M28.4173 5.74932V1.01886H27.4628V3.92991L25.5536 1.01886H24.7458V5.74932H25.7004V2.83827L27.6096 5.74932H28.4173ZM33.1903 5.74932L31.428 1.01886H30.6937L29.0048 5.74932H29.9594L30.2531 4.94878H31.942L32.2357 5.74932H33.1903ZM31.7217 4.14824H30.5468L31.1343 2.47439L31.7217 4.14824ZM37.4492 5.74932V1.01886H36.4946V3.92991L34.5855 1.01886H33.7777V5.74932H34.7323V2.83827L36.6415 5.74932H37.4492ZM41.7816 1.01886H40.7536L39.8724 2.91104L38.9913 1.01886H37.9632L39.3584 3.78436V5.67654H40.313V3.78436L41.7816 1.01886ZM45.7468 5.74932L43.9845 1.01886H43.2502L41.5613 5.74932H42.5159L42.8096 4.94878H44.4985L44.7922 5.74932H45.7468ZM44.2048 4.14824H43.0299L43.6173 2.47439L44.2048 4.14824ZM49.9323 5.74932V1.01886H48.9777V3.92991L47.0686 1.01886H46.2608V5.74932H47.2154V2.83827L49.1246 5.74932H49.9323ZM53.971 5.23988C54.3381 4.876 54.4115 4.51212 54.4115 3.78436V3.12937H52.6492V3.92991H53.5304V4.07546C53.5304 4.29379 53.457 4.51212 53.3101 4.73045C53.1632 4.876 52.9429 5.02156 52.6492 5.02156C52.4289 5.02156 52.2087 4.94878 52.0618 4.80323C51.9149 4.5849 51.8415 4.36657 51.8415 3.49325C51.8415 2.61994 51.9149 2.40161 52.0618 2.18328C52.2087 2.03773 52.4289 1.96495 52.6492 1.96495C53.0898 1.96495 53.3835 2.18328 53.5304 2.61994H54.485C54.3381 1.8194 53.8241 1.09164 52.7227 1.09164C52.2087 1.09164 51.7681 1.30997 51.4743 1.60107C50.9603 2.1105 51.0338 2.69271 51.0338 3.49325C51.0338 4.29379 51.0338 4.876 51.4743 5.38544C51.8415 5.74932 52.2087 5.89487 52.7227 5.89487C53.1632 5.74932 53.6038 5.60377 53.971 5.23988ZM28.1971 8.07816V7.27762H24.8193V8.07816H26.0676V11.9353H27.0222V8.07816H28.1971ZM31.942 11.9353V11.1348H29.7391V9.97034H31.5748V9.1698H29.7391V8.07816H31.942V7.27762H28.8579V12.0081H31.942V11.9353ZM34.3652 12.0081C35.2463 12.0081 35.9072 11.4986 36.1275 10.5526H35.1729C35.0995 10.9164 34.8058 11.2075 34.3652 11.2075C34.1449 11.2075 33.9246 11.1348 33.7777 10.9892C33.6309 10.7709 33.5574 10.5526 33.5574 9.67924C33.5574 8.80592 33.6309 8.58759 33.7777 8.36926C33.9246 8.22371 34.1449 8.15094 34.3652 8.15094C34.8058 8.15094 35.0995 8.44204 35.1729 8.80592H36.1275C35.9806 7.78705 35.2463 7.3504 34.3652 7.3504C33.8512 7.3504 33.4106 7.56873 33.1169 7.85983C32.6029 8.36926 32.6763 8.95147 32.6763 9.75201C32.6763 10.5526 32.6763 11.1348 33.1169 11.6442C33.4106 11.7898 33.8512 12.0081 34.3652 12.0081ZM40.2396 11.9353V7.27762H39.285V9.1698H37.6695V7.27762H36.7149V12.0081H37.6695V10.0431H39.285V12.0081H40.2396V11.9353ZM44.9391 11.9353V7.27762H44.0579V10.1887L42.1487 7.27762H41.341V12.0081H42.2956V9.09703L44.2048 12.0081H44.9391V11.9353ZM48.9043 11.4986C49.4183 10.9892 49.3449 10.407 49.3449 9.60646C49.3449 8.80592 49.3449 8.22371 48.9043 7.71428C48.5372 7.3504 48.17 7.20484 47.656 7.20484C47.142 7.20484 46.7014 7.42317 46.4077 7.71428C45.8937 8.22371 45.9671 8.80592 45.9671 9.60646C45.9671 10.407 45.9671 10.9892 46.4077 11.4986C46.7748 11.8625 47.142 12.0081 47.656 12.0081C48.17 12.0081 48.6106 11.7898 48.9043 11.4986ZM48.2434 8.29649C48.3903 8.51482 48.4637 8.73315 48.4637 9.60646C48.4637 10.4798 48.3903 10.6981 48.2434 10.9164C48.0966 11.062 47.8763 11.1348 47.656 11.1348C47.4357 11.1348 47.2154 11.062 47.0686 10.9164C46.9217 10.6981 46.8483 10.4798 46.8483 9.60646C46.8483 8.73315 46.9217 8.51482 47.0686 8.29649C47.2154 8.15094 47.4357 8.07816 47.656 8.07816C47.8763 8.00538 48.0966 8.15094 48.2434 8.29649ZM53.3101 11.9353V11.1348H51.1806V7.27762H50.226V12.0081H53.3101V11.9353ZM56.7613 11.4986C57.2753 10.9892 57.2019 10.407 57.2019 9.60646C57.2019 8.80592 57.2019 8.22371 56.7613 7.71428C56.3942 7.3504 56.027 7.20484 55.513 7.20484C54.999 7.20484 54.5584 7.42317 54.2647 7.71428C53.7507 8.22371 53.8241 8.80592 53.8241 9.60646C53.8241 10.407 53.8241 10.9892 54.2647 11.4986C54.6318 11.8625 54.999 12.0081 55.513 12.0081C56.027 12.0081 56.3942 11.7898 56.7613 11.4986ZM56.1004 8.29649C56.2473 8.51482 56.3207 8.73315 56.3207 9.60646C56.3207 10.4798 56.2473 10.6981 56.1004 10.9164C55.9536 11.062 55.7333 11.1348 55.513 11.1348C55.2927 11.1348 55.0724 11.062 54.9256 10.9164C54.7787 10.6981 54.7053 10.4798 54.7053 9.60646C54.7053 8.73315 54.7787 8.51482 54.9256 8.29649C55.0724 8.15094 55.2927 8.07816 55.513 8.07816C55.7333 8.00538 55.9536 8.15094 56.1004 8.29649ZM60.8734 11.4259C61.2405 11.062 61.314 10.6981 61.314 9.97034V9.31536H59.5516V10.1159H60.4328V10.2614C60.4328 10.4798 60.3594 10.6981 60.2125 10.9164C60.0657 11.062 59.8454 11.2075 59.5516 11.2075C59.3314 11.2075 59.1111 11.1348 58.9642 10.9892C58.7439 10.6981 58.7439 10.4798 58.7439 9.60646C58.7439 8.73315 58.8173 8.51482 58.9642 8.29649C59.1111 8.15094 59.3314 8.07816 59.5516 8.07816C59.9922 8.07816 60.2859 8.29649 60.4328 8.73315H61.3874C61.2405 7.93261 60.7265 7.20484 59.6251 7.20484C59.1111 7.20484 58.6705 7.42317 58.3768 7.71428C57.8628 8.22371 57.9362 8.80592 57.9362 9.60646C57.9362 10.407 57.9362 10.9892 58.3768 11.4986C58.7439 11.8625 59.1111 12.0081 59.6251 12.0081C60.0657 12.0081 60.5062 11.8625 60.8734 11.4259ZM62.4154 11.9353H63.37V7.27762H62.4154V11.9353ZM66.2338 12.0081C67.1149 12.0081 67.7758 11.4986 67.9961 10.5526H67.0415C66.9681 10.9164 66.6743 11.2075 66.2338 11.2075C66.0135 11.2075 65.7932 11.1348 65.6463 10.9892C65.4995 10.7709 65.426 10.5526 65.426 9.67924C65.426 8.80592 65.4995 8.58759 65.6463 8.36926C65.7932 8.22371 66.0135 8.15094 66.2338 8.15094C66.6743 8.15094 66.9681 8.44204 67.0415 8.80592H67.9961C67.8492 7.78705 67.1149 7.3504 66.2338 7.3504C65.7198 7.3504 65.2792 7.56873 64.9855 7.85983C64.4715 8.36926 64.5449 8.95147 64.5449 9.75201C64.5449 10.5526 64.5449 11.1348 64.9855 11.6442C65.2792 11.7898 65.7198 12.0081 66.2338 12.0081ZM72.3285 11.9353L70.6396 7.27762H69.9053L68.2164 12.0081H69.171L69.4647 11.2075H71.1536L71.4473 12.0081H72.3285V11.9353ZM70.8599 10.3342H69.685L70.2724 8.66037L70.8599 10.3342ZM76 11.9353V11.1348H73.8705V7.27762H72.9159V12.0081H76V11.9353ZM26.5082 18.1941C27.4628 18.1941 28.2705 17.5391 28.2705 16.5202V13.4636H27.3893V16.5202C27.3893 17.0296 27.0956 17.3935 26.5816 17.3935C26.0676 17.3935 25.7739 17.1024 25.7739 16.5202V13.4636H24.8193V16.5202C24.7458 17.5391 25.5536 18.1941 26.5082 18.1941ZM32.8966 18.1941V13.4636H31.942V16.3747L30.0328 13.4636H29.2251V18.1941H30.1797V15.283L32.0888 18.1941H32.8966ZM33.998 18.1941H34.9526V13.4636H33.998V18.1941ZM39.285 13.4636H38.3304L37.3758 16.5202L36.4212 13.4636H35.4666L37.0087 18.1941H37.6695L39.285 13.4636ZM43.0299 18.1941V17.3935H40.827V16.2291H42.6628V15.4286H40.827V14.3369H43.0299V13.5364H39.9458V18.1941H43.0299ZM47.5091 18.1941L46.4811 16.1563C46.9217 16.0108 47.3623 15.5741 47.3623 14.9191C47.3623 14.1186 46.7748 13.4636 45.8202 13.4636H43.9845V18.1941H44.9391V16.3019H45.5265L46.4811 18.1941H47.5091ZM45.7468 14.2641C46.1874 14.2641 46.4077 14.5552 46.4077 14.9191C46.4077 15.283 46.114 15.5741 45.7468 15.5741H44.8657V14.3369H45.7468V14.2641ZM49.5652 18.1941C50.5198 18.1941 51.3275 17.6846 51.3275 16.7385C51.3275 16.3019 51.1806 16.0108 50.9603 15.7197C50.7401 15.5013 50.5198 15.4286 50.0792 15.3558L49.4917 15.283C49.2715 15.283 49.1246 15.2102 49.0512 15.0647C48.9777 14.9919 48.9043 14.8464 48.9043 14.7008C48.9043 14.4097 49.1246 14.1186 49.6386 14.1186C49.9323 14.1186 50.2995 14.1914 50.5932 14.4097L51.1806 13.8275C50.74 13.4636 50.2995 13.2453 49.6386 13.2453C48.6106 13.2453 48.0231 13.8275 48.0231 14.7008C48.0231 15.0647 48.17 15.4286 48.3903 15.6469C48.6106 15.8652 48.9043 16.0108 49.2715 16.0108L49.8589 16.0836C50.0792 16.0836 50.1526 16.1563 50.2995 16.2291C50.3729 16.3019 50.4463 16.4474 50.4463 16.593C50.4463 16.9569 50.1526 17.1752 49.6386 17.1752C49.198 17.1752 48.7574 17.1024 48.4637 16.8113L47.8763 17.3935C48.3169 18.0485 48.8309 18.1941 49.5652 18.1941ZM52.2086 18.1941H53.1632V13.4636H52.2086V18.1941ZM57.2753 14.2641V13.4636H53.8975V14.2641H55.1458V18.1941H56.1004V14.3369H57.2753V14.2641ZM61.3874 13.4636H60.3594L59.4782 15.3558L58.5971 13.4636H57.569L58.9642 16.2291V18.1941H59.8454V16.3019L61.3874 13.4636ZM61.3874 19.8679H24.8193V20.3046H61.3874V19.8679ZM26.2144 25.9083C27.0222 25.9083 27.683 25.4717 27.683 24.7439C27.683 24.38 27.6096 24.0889 27.3893 23.9434C27.2425 23.7978 27.0222 23.7251 26.655 23.6523L26.2144 23.5795C26.0676 23.5795 25.9207 23.5067 25.8473 23.434C25.7004 23.3612 25.7004 23.2156 25.7004 23.1428C25.7004 22.8517 25.9207 22.6334 26.2879 22.6334C26.5082 22.6334 26.8019 22.6334 27.0956 22.9245L27.6096 22.4879C27.2425 22.1968 26.8753 22.0512 26.3613 22.0512C25.5536 22.0512 25.0396 22.5606 25.0396 23.2156C25.0396 23.5067 25.113 23.7978 25.3333 23.9434C25.4801 24.0889 25.7739 24.2345 26.0676 24.2345L26.5082 24.3073C26.655 24.3073 26.8019 24.38 26.8753 24.4528C26.9487 24.5256 27.0222 24.6712 27.0222 24.7439C27.0222 25.035 26.8019 25.2534 26.3613 25.2534C25.9942 25.2534 25.7004 25.1806 25.4067 24.9623L24.8927 25.4717C25.1864 25.7628 25.627 25.9083 26.2144 25.9083ZM29.3719 25.9083H30.1062V22.0512H29.3719V25.9083ZM34.9526 25.9083V22.0512H34.2183V24.38L32.6763 22.0512H32.0154V25.9083H32.7497V23.5795L34.2917 25.9083H34.9526ZM39.2115 25.4717C39.5053 25.1806 39.5787 24.8895 39.5787 24.3073V23.7251H38.1101V24.38H38.8444V24.5256C38.8444 24.7439 38.771 24.8895 38.6975 25.035C38.5507 25.1806 38.4038 25.2534 38.1835 25.2534C37.9632 25.2534 37.8164 25.1806 37.6695 25.035C37.5227 24.8895 37.4492 24.6712 37.4492 23.9434C37.4492 23.2156 37.5227 22.9973 37.6695 22.8517C37.7429 22.7062 37.9632 22.6334 38.1835 22.6334C38.5507 22.6334 38.771 22.8517 38.9178 23.2156H39.6521C39.5787 22.5606 39.0647 21.9784 38.1835 21.9784C37.7429 21.9784 37.3758 22.124 37.1555 22.4151C36.7149 22.8517 36.7149 23.2884 36.7149 23.9434C36.7149 24.5984 36.7149 25.1078 37.0821 25.4717C37.3758 25.7628 37.6695 25.9083 38.1101 25.9083C38.5507 25.9083 38.9178 25.8356 39.2115 25.4717ZM44.2782 25.9083L42.883 22.0512H42.2956L40.9004 25.9083H41.7082L41.9285 25.2534H43.3236L43.5439 25.9083H44.2782ZM43.1033 24.5984H42.1487L42.6628 23.2156L43.1033 24.5984ZM47.142 24.4528C47.9497 24.4528 48.3903 23.8706 48.3903 23.2884C48.3903 22.6334 47.8763 22.124 47.142 22.124H45.6734V25.9811H46.4077V24.5256H47.142V24.4528ZM47.142 22.7062C47.5091 22.7062 47.7294 22.9245 47.7294 23.2156C47.7294 23.5067 47.5091 23.7251 47.142 23.7251H46.4077V22.7062H47.142ZM52.2821 25.4717C52.6492 25.1078 52.6492 24.5984 52.6492 23.9434C52.6492 23.2884 52.6492 22.779 52.2821 22.4151C51.9884 22.124 51.6946 21.9784 51.2541 21.9784C50.8135 21.9784 50.4463 22.124 50.226 22.4151C49.8589 22.779 49.8589 23.2884 49.8589 23.9434C49.8589 24.5984 49.8589 25.1078 50.226 25.4717C50.5198 25.7628 50.8135 25.9083 51.2541 25.9083C51.6946 25.9083 52.0618 25.7628 52.2821 25.4717ZM51.7681 22.8517C51.9149 22.9973 51.9884 23.2156 51.9884 23.9434C51.9884 24.6712 51.9149 24.8895 51.7681 25.035C51.6946 25.1806 51.4744 25.2534 51.2541 25.2534C51.0338 25.2534 50.8869 25.1806 50.74 25.035C50.5932 24.8895 50.5198 24.6712 50.5198 23.9434C50.5198 23.2156 50.5932 22.9973 50.74 22.8517C50.8135 22.7062 51.0338 22.6334 51.2541 22.6334C51.4744 22.7062 51.6212 22.779 51.7681 22.8517ZM57.2019 25.9083L56.3207 24.2345C56.6879 24.0889 57.055 23.7978 57.055 23.2156C57.055 22.5606 56.6144 22.0512 55.8067 22.0512H54.2647V25.9083H54.999V24.38H55.513L56.2473 25.9083H57.2019ZM55.7333 22.7062C56.1004 22.7062 56.3207 22.9245 56.3207 23.2156C56.3207 23.5067 56.1004 23.7251 55.7333 23.7251H54.999V22.7062H55.7333ZM61.314 25.9083V25.2534H59.4782V24.3073H61.0202V23.6523H59.4782V22.779H61.314V22.124H58.7439V25.9811H61.314V25.9083Z" fill="white"/>
<path d="M8.29756 14.7008C8.51785 14.7736 8.66471 14.7736 8.885 14.8464C9.10529 14.9192 9.25215 14.9919 9.32558 14.9919C9.39901 14.9919 9.39901 15.0647 9.39901 15.0647C9.39901 15.0647 9.32558 14.9919 9.25215 14.9919C9.03186 14.8464 8.73814 14.7736 8.51785 14.7008C8.44442 14.7008 8.37099 14.6281 8.29756 14.7008C8.22413 14.6281 8.1507 14.6281 8.07727 14.6281V14.7008C8.1507 14.6281 8.22413 14.7008 8.29756 14.7008Z" fill="white"/>
<path d="M8.00385 15.1375C8.07728 15.1375 8.07728 15.2103 8.15071 15.2103C8.29757 15.283 8.44443 15.4286 8.51786 15.5014C8.59129 15.5742 8.59129 15.5742 8.66472 15.6469C8.73815 15.7197 8.73815 15.7197 8.81158 15.7925C8.81158 15.7925 8.81158 15.7925 8.81158 15.7197C8.73815 15.6469 8.73815 15.5742 8.66472 15.5742C8.59129 15.5014 8.59129 15.5014 8.51786 15.4286C8.371 15.283 8.22414 15.2103 8.07728 15.1375C8.07728 15.1375 8.00385 15.0647 8.00385 15.1375C8.00385 15.0647 7.93042 15.0647 7.93042 14.9919V15.0647C7.93042 15.0647 7.93042 15.1375 8.00385 15.1375Z" fill="white"/>
<path d="M7.0493 15.8652C7.0493 15.7196 6.97587 15.5741 6.97587 15.5741L6.90244 15.8652C6.82901 15.8652 7.0493 16.0108 7.0493 15.8652Z" fill="white"/>
<path d="M5.21357 13.973H5.14014C5.06671 13.973 4.99328 13.973 4.91985 13.973C4.91985 13.973 4.91985 13.973 4.84642 13.973C4.77299 13.973 4.77299 13.973 4.69956 13.973C4.62613 13.973 4.62613 13.973 4.5527 13.973C4.47927 13.973 4.47927 13.973 4.40584 13.973C4.33241 13.973 4.25898 13.973 4.25898 13.973C4.25898 13.973 4.25898 13.973 4.18555 13.973C4.18555 13.973 4.18555 13.973 4.25898 13.973C4.25898 13.973 4.33241 13.973 4.40584 13.973H4.47927C4.5527 13.973 4.5527 13.973 4.62613 13.973C4.69956 13.973 4.77299 13.973 4.84642 13.973C4.84642 13.973 4.84642 13.973 4.91985 13.973C4.99328 13.973 5.06671 13.973 5.14014 13.973C5.06671 13.973 5.14014 14.0458 5.21357 13.973C5.21357 14.0458 5.287 14.0458 5.36043 14.0458V13.973C5.287 13.973 5.21357 13.973 5.21357 13.973Z" fill="white"/>
<path d="M8.15077 14.4825C8.15077 14.3369 8.15077 14.2642 8.15077 14.2642C8.07734 14.2642 8.07734 14.2642 8.00391 14.2642L8.15077 14.4825Z" fill="white"/>
<path d="M6.31502 13.3908C6.31502 13.3908 6.31502 13.5364 6.24159 13.4636L6.16816 13.3908V13.3181H6.09473C6.09473 13.3181 6.09473 13.3181 6.09473 13.3908C6.09473 13.4636 6.09473 13.4636 6.16816 13.5364C6.24159 13.5364 6.31502 13.3908 6.31502 13.3908Z" fill="white"/>
<path d="M7.19612 14.9919C7.04926 14.8464 7.04926 14.9191 7.04926 14.9191C7.04926 14.9919 6.97583 15.2102 6.97583 15.2102C7.04926 15.1375 7.19612 14.9919 7.19612 14.9919Z" fill="white"/>
<path d="M5.5072 14.8464C5.5072 14.8464 5.58063 14.8464 5.65406 14.8464C5.58063 14.7736 5.5072 14.8464 5.5072 14.8464Z" fill="white"/>
<path d="M7.26953 13.5364C7.34296 13.6091 7.41639 13.5364 7.48982 13.5364C7.56325 13.4636 7.56325 13.3908 7.56325 13.3908H7.48982C7.48982 13.4636 7.48982 13.5364 7.41639 13.5364C7.41639 13.5364 7.34296 13.5364 7.26953 13.5364C7.34296 13.4636 7.26953 13.4636 7.26953 13.4636V13.5364Z" fill="white"/>
<path d="M8.29762 14.2641C8.44448 14.2641 8.44448 14.2641 8.51791 14.2641C8.66477 14.2641 8.7382 14.2641 8.88506 14.2641C9.03192 14.2641 9.10535 14.2641 9.25221 14.2641H9.32564H9.39907H9.4725C9.4725 14.2641 9.4725 14.2641 9.54593 14.2641C9.4725 14.2641 9.39907 14.1914 9.32564 14.1914H9.25221C9.10535 14.1914 8.95849 14.1186 8.81163 14.1186C8.66477 14.1914 8.51791 14.1914 8.29762 14.2641C8.37105 14.1914 8.29762 14.1914 8.29762 14.2641C8.29762 14.1914 8.29762 14.1914 8.29762 14.2641C8.22419 14.1914 8.15076 14.1914 8.15076 14.1914V14.2641C8.22419 14.2641 8.22419 14.2641 8.29762 14.2641Z" fill="white"/>
<path d="M5.28699 14.4097C5.28699 14.4825 5.28699 14.4825 5.28699 14.5553L5.36042 14.4097C5.36042 14.4097 5.36042 14.4097 5.28699 14.4097Z" fill="white"/>
<path d="M8.59133 12.372C8.5179 12.2992 8.5179 12.2992 8.44447 12.2992C8.37104 12.2992 8.29761 12.372 8.29761 12.372C8.37104 12.4447 8.59133 12.5903 8.73819 12.6631C8.66476 12.6631 8.66476 12.5175 8.59133 12.372Z" fill="white"/>
<path d="M4.77291 12.5903L4.84634 12.5175L4.77291 12.5903L4.91977 12.372C4.9932 12.2264 5.14006 12.1536 5.21349 12.0809C5.14006 12.0809 5.14006 12.0809 5.14006 12.0809C5.06663 12.0809 5.06663 12.0809 4.9932 12.0809C4.91977 12.0809 4.84634 12.0809 4.77291 12.1536C4.69948 12.2264 4.62605 12.372 4.69948 12.4448C4.69948 12.5175 4.77291 12.5175 4.77291 12.5903Z" fill="white"/>
<path d="M5.21353 14.9919C5.06667 15.0647 4.91981 15.2103 4.84638 15.3558C4.84638 15.4286 4.77295 15.4286 4.77295 15.5014C4.77295 15.5014 4.77295 15.5014 4.84638 15.4286C4.84638 15.3558 4.99324 15.2103 5.21353 14.9919C5.21353 15.0647 5.28696 14.9919 5.28696 14.9919C5.28696 14.9919 5.28696 14.9919 5.36039 14.9919C5.43382 14.9919 5.43382 14.9192 5.50725 14.9192V14.8464C5.36039 14.9192 5.28696 14.9192 5.21353 14.9919Z" fill="white"/>
<path d="M5.28696 17.6846L4.84638 17.8302L5.28696 17.6119C5.28696 17.6119 5.43382 17.5391 5.43382 17.3935V17.3208C5.43382 17.3208 5.43382 17.3208 5.43382 17.248C5.43382 17.248 5.43382 17.248 5.43382 17.1752C5.43382 17.1752 5.43382 17.1752 5.43382 17.1024C5.43382 17.1024 5.43382 17.1024 5.43382 17.0297C5.43382 17.0297 5.43382 16.9569 5.36039 16.9569V16.8841C5.36039 16.8841 5.36039 16.8841 5.36039 16.8113C5.36039 16.8113 5.36039 16.7386 5.28696 16.7386C5.28696 16.6658 5.21353 16.6658 5.21353 16.593L5.1401 16.5202C5.06667 16.5202 4.69952 16.3747 4.62609 15.7197C4.62609 15.5741 4.55266 15.4286 4.62609 15.3558C4.55266 15.4286 4.47923 15.4286 4.4058 15.4286C4.33237 15.4286 4.33237 15.4286 4.25894 15.4286C4.18551 15.4286 4.18551 15.4286 4.11208 15.4286L3.81836 15.3558L4.11208 15.283C4.25894 15.2103 4.33237 15.1375 4.4058 14.9919C4.18551 14.8464 4.03865 14.7008 3.81836 14.4825C3.45121 14.0458 3.37778 13.7547 3.30435 13.5364V13.4636C3.23092 13.3181 3.30435 13.0997 3.30435 12.9542C3.30435 12.8814 3.30435 12.8814 3.30435 12.8086C3.30435 12.7359 3.30435 12.6631 3.23092 12.6631C3.15749 12.6631 3.15749 12.7359 3.08406 12.7359C3.01063 12.7359 2.9372 12.7359 2.9372 12.6631C2.9372 12.7359 2.9372 12.8086 2.9372 12.9542V13.027C2.9372 13.0997 2.9372 13.0997 2.9372 13.1725V13.2453C2.9372 13.2453 2.9372 13.2453 2.9372 13.1725C2.9372 13.1725 2.9372 13.0997 2.86377 13.0997C2.86377 13.027 2.79034 12.9542 2.79034 12.8814C2.79034 12.8086 2.79034 12.8086 2.79034 12.7359C2.79034 12.6631 2.79034 12.6631 2.79034 12.6631C2.71691 12.7359 2.64348 12.7359 2.57005 12.7359C2.49662 12.7359 2.49662 12.7359 2.49662 12.7359C2.49662 12.7359 2.49662 12.8086 2.57005 13.027C2.57005 13.0997 2.57005 13.0997 2.64348 13.3181V13.4636C2.64348 13.4636 2.64348 13.4636 2.57005 13.4636L2.49662 13.3908C2.49662 13.3908 2.42319 13.3181 2.42319 13.2453C2.34976 13.1725 2.34976 13.0997 2.27633 13.027C2.27633 13.027 2.27633 13.027 2.2029 13.027C2.2029 13.1725 2.05604 13.2453 1.98261 13.2453C1.98261 13.3181 2.05604 13.3181 2.12947 13.3908C2.27633 13.4636 2.42319 13.682 2.42319 13.8275L2.34976 13.9003C2.27633 13.9003 2.2029 13.8275 2.05604 13.7547C2.05604 13.8275 1.98261 13.9003 1.90918 13.9731C1.90918 14.1186 2.2029 14.1186 2.2029 14.1186C2.34976 14.3369 2.42319 14.3369 2.57005 14.4097C2.57005 14.4097 2.64348 14.4097 2.64348 14.4825C2.64348 14.4825 2.79034 14.5553 2.79034 14.628C2.79034 14.628 2.86377 14.7008 2.86377 14.7736C2.86377 14.7736 2.86377 14.7736 2.86377 14.8464C3.01063 15.0647 3.23092 15.5014 3.52464 15.938C3.52464 15.938 3.52464 15.938 3.52464 16.0108C3.52464 16.0836 3.59807 16.0836 3.59807 16.1563C3.59807 16.2291 3.6715 16.2291 3.6715 16.3019C3.6715 16.3019 3.6715 16.3019 3.6715 16.3747C3.6715 16.4475 3.74493 16.4475 3.74493 16.5202C3.74493 16.593 3.81836 16.593 3.81836 16.6658C3.81836 16.6658 3.81836 16.6658 3.81836 16.7386L3.89179 16.8113C3.89179 16.8113 3.89179 16.8841 3.96522 16.8841C3.96522 16.8841 3.96522 16.9569 4.03865 16.9569C4.03865 17.0297 4.11208 17.0297 4.11208 17.1024C4.11208 17.1752 4.18551 17.1752 4.18551 17.248C4.18551 17.248 4.18551 17.3208 4.25894 17.3208C4.25894 17.3208 4.25894 17.3935 4.33237 17.3935C4.33237 17.3935 4.33237 17.3935 4.33237 17.4663C4.33237 17.4663 4.33237 17.4663 4.33237 17.5391C4.33237 17.5391 4.33237 17.5391 4.33237 17.6119L4.4058 17.6846C4.4058 17.6846 4.4058 17.6846 4.47923 17.7574C4.62609 17.8302 4.69952 17.9758 4.84638 17.9758C5.06667 18.0485 5.36039 17.9758 5.65411 17.8302C5.72754 17.8302 5.80097 17.7574 5.8744 17.6846C5.8744 17.6119 5.8744 17.6119 5.80097 17.5391C5.65411 17.5391 5.50725 17.6846 5.28696 17.6846Z" fill="white"/>
<path d="M5.14013 14.4097C4.99327 14.4097 4.77298 14.4825 4.62612 14.5553C4.62612 14.5553 4.55269 14.5553 4.47926 14.6281H4.40583C4.40583 14.6281 4.40583 14.6281 4.3324 14.6281C4.3324 14.6281 4.3324 14.6281 4.40583 14.6281H4.47926H4.55269C4.69955 14.4825 4.91984 14.4825 5.14013 14.4097C5.21356 14.4825 5.21356 14.4825 5.28699 14.4825V14.4097C5.21356 14.3369 5.21356 14.4097 5.14013 14.4097Z" fill="white"/>
<path d="M11.0879 17.903C11.0879 17.8302 11.1613 17.7574 11.1613 17.6846H10.941C10.941 17.7574 11.0145 17.8302 11.0879 17.903Z" fill="white"/>
<path d="M19.0918 13.1725C18.7247 12.663 18.1372 12.4447 17.3295 12.4447C16.6686 12.4447 15.9343 12.5903 15.3469 12.7358C15.1266 12.8086 14.9063 12.8814 14.6126 12.8814C13.9517 13.0269 13.3643 13.2453 12.7034 13.318C12.4831 13.318 12.2628 13.3908 12.0426 13.3908C11.602 13.3908 11.3083 13.318 11.0145 13.1725C10.7942 13.0997 10.6474 12.9542 10.574 12.8086C10.4271 12.5903 10.4271 12.3719 10.5005 12.1536C10.7208 11.6442 11.5285 11.4258 11.8957 11.4258C12.1894 11.3531 12.4831 11.3531 12.7034 11.3531C12.9237 11.3531 13.144 11.3531 13.2909 11.4258C13.0706 11.3531 13.0706 11.2803 13.2174 11.2075H13.144C12.9971 11.2075 12.7769 11.2075 12.63 11.2075C11.6754 11.2803 10.2802 11.2803 10.1334 12.2992C10.0599 12.8086 10.2802 13.1725 10.9411 13.5364C11.3083 13.7547 11.7488 13.7547 12.0426 13.7547C12.1894 13.7547 12.3363 13.7547 12.4831 13.6819C12.5566 13.6819 12.63 13.6819 12.7034 13.6091L16.6686 12.7358C17.1092 12.5903 17.6967 12.663 18.1372 12.8814C18.5044 13.0997 18.7981 13.318 18.8715 13.6819C18.945 13.973 18.8715 14.3369 18.5778 14.628C18.3575 14.8463 18.0638 15.0647 17.6967 15.1374C17.5498 15.283 17.2561 15.283 16.9624 15.283C16.8889 15.283 16.8889 15.283 16.8155 15.283C16.6686 15.283 16.4483 15.283 16.3015 15.283C15.7875 15.283 15.2735 15.2102 14.686 15.1374C14.4657 15.1374 14.172 15.0647 13.8783 14.9919C13.8049 14.9919 13.8049 14.9919 13.7314 14.9919C13.5112 14.9919 13.3643 14.9191 13.144 14.9191C13.0706 14.9191 13.0706 14.9191 12.9971 14.9191C12.8503 14.9191 12.63 14.9919 12.4097 15.0647C12.1894 15.1374 11.8957 15.2102 11.602 15.2102C11.1614 15.2102 10.7942 15.1374 10.7942 15.1374C10.7942 15.1374 10.7942 15.1374 10.7208 15.1374C10.574 15.2102 10.2802 15.3558 9.91308 15.3558C9.83965 15.3558 9.83965 15.3558 9.76622 15.3558C9.76622 15.5013 9.69279 15.8652 9.32564 16.2291C9.32564 16.2291 9.03192 16.4474 9.17878 16.8841L9.25221 17.1024L9.10535 17.0296C9.10535 17.0296 8.88506 16.8841 8.81163 16.6657L8.15076 17.4663C8.07733 17.5391 8.0039 17.8302 8.07733 17.9757L8.22419 18.194L8.0039 18.1213C8.0039 18.1213 7.71018 18.0485 7.71018 17.5391C7.63675 17.6846 7.4899 17.9029 7.34304 18.1213C7.19618 18.3396 7.04932 18.5579 7.04932 18.7763V18.9218L6.97589 18.7763C6.97589 18.7035 6.90246 18.7035 6.90246 18.6307C6.82903 18.5579 6.82903 18.4851 6.82903 18.4851V18.4124C6.82903 18.4851 6.82903 18.4851 6.7556 18.5579C6.7556 18.5579 6.7556 18.6307 6.68217 18.6307C6.68217 18.6307 6.68217 18.6307 6.68217 18.7035C6.60874 19.2129 6.53531 19.8679 6.53531 19.8679C6.46188 20.159 6.24159 20.8868 6.24159 20.8868C6.24159 20.8868 6.09473 21.3234 5.94787 21.469C5.80101 21.6145 5.58072 21.6873 5.43386 21.7601C5.36043 21.7601 5.36043 21.7601 5.287 21.8329C5.21357 21.9056 5.14014 21.9056 5.14014 21.9784C5.21357 21.9784 5.21357 21.9784 5.287 22.0512C5.287 22.0512 5.36043 22.124 5.36043 22.1967L5.43386 22.124L5.50729 22.0512H5.58072C5.65415 22.0512 5.65415 22.0512 5.65415 22.0512C5.65415 22.0512 5.65415 22.0512 5.58072 22.124L5.50729 22.1967L5.43386 22.2695C5.36043 22.2695 5.36043 22.3423 5.36043 22.3423C5.43386 22.3423 5.50729 22.3423 5.58072 22.4151C5.65415 22.4878 5.65415 22.5606 5.65415 22.6334V22.5606C5.65415 22.4878 5.65415 22.4878 5.72758 22.4151L5.80101 22.3423L5.87444 22.2695C5.94787 22.2695 5.94787 22.1967 6.0213 22.1967C6.09473 22.1967 6.09473 22.124 6.16816 22.124C6.24159 22.124 6.31502 22.124 6.31502 22.124L6.24159 22.1967C6.24159 22.1967 6.16816 22.2695 6.09473 22.2695C6.0213 22.2695 6.0213 22.3423 5.94787 22.3423C5.87444 22.3423 5.87444 22.4151 5.87444 22.4151C5.94787 22.4151 6.0213 22.4151 6.0213 22.4878C6.09473 22.5606 6.09473 22.6334 6.09473 22.6334C6.16816 22.6334 6.16816 22.6334 6.16816 22.6334V22.5606C6.16816 22.5606 6.16816 22.5606 6.16816 22.4878C6.16816 22.4151 6.16816 22.4151 6.24159 22.3423C6.24159 22.3423 6.24159 22.2695 6.31502 22.2695C6.31502 22.2695 6.38845 22.2695 6.38845 22.1967C6.46188 22.1967 6.46188 22.124 6.53531 22.124C6.60874 22.124 6.60874 22.0512 6.68217 22.0512C6.7556 22.0512 6.82903 22.0512 6.82903 22.0512C6.82903 22.0512 6.7556 22.0512 6.7556 22.124C6.7556 22.124 6.68217 22.1967 6.60874 22.1967C6.53531 22.1967 6.53531 22.2695 6.46188 22.2695C6.38845 22.2695 6.38845 22.3423 6.31502 22.3423L6.24159 22.4151C6.24159 22.4151 6.31502 22.4151 6.38845 22.4151C6.46188 22.4151 6.53531 22.4151 6.60874 22.5606C6.68217 22.5606 6.68217 22.5606 6.7556 22.4878C6.82903 22.4878 6.82903 22.4151 6.90246 22.4151C6.97589 22.4151 6.97589 22.4151 7.04932 22.2695C7.04932 22.0512 7.12275 21.9056 7.19618 21.9056L7.2696 21.8329V21.7601C7.78361 20.3046 8.66477 19.0674 8.66477 19.0674V18.9946C8.88506 18.7763 8.95849 18.6307 8.95849 18.6307L8.81163 18.4124C8.81163 18.3396 8.7382 18.2668 8.7382 18.1213V18.0485V17.9757C8.7382 17.9029 8.7382 17.9029 8.7382 17.9029V17.8302L8.81163 17.7574V17.8302V17.9029C8.95849 17.8302 10.8677 17.3207 11.6754 17.3207C11.6754 17.3207 11.6754 17.3207 11.7488 17.3207C11.8957 17.3207 11.9691 17.248 12.116 17.248C12.3363 17.248 12.4831 17.248 12.63 17.3207C12.8503 17.3935 12.9971 17.3935 13.0706 17.4663C13.0706 17.3935 12.9971 17.3207 12.9237 17.1752C12.9237 17.1024 12.8503 17.1024 12.8503 17.0296C12.8503 16.9568 12.7769 16.9568 12.7769 16.8841C12.7769 16.8113 12.7034 16.8113 12.7034 16.7385C12.7034 16.6657 12.63 16.6657 12.63 16.6657L12.5566 16.593C12.4831 16.593 12.4831 16.5202 12.4831 16.5202C12.4831 16.5202 12.4831 16.5202 12.5566 16.5202C12.5566 16.5202 12.5566 16.5202 12.63 16.5202C12.63 16.5202 12.63 16.5202 12.7034 16.5202L12.7769 16.593L12.8503 16.6657C12.8503 16.7385 12.9237 16.7385 12.9237 16.8113C12.9971 16.8841 13.0706 17.0296 13.0706 17.1024C13.144 17.1752 13.144 17.3207 13.2174 17.3935C13.2174 17.3935 13.2174 17.3935 13.2174 17.4663C13.2909 17.5391 13.3643 17.6846 13.4377 18.194C13.5112 18.6307 13.8049 18.9218 14.2455 18.9946C14.7595 19.1401 15.0532 19.2857 15.2 19.5768C15.3469 19.8679 15.5672 20.5229 15.4938 21.1051C15.4938 21.469 15.2735 21.7601 14.9063 21.9056C14.9063 21.9056 14.9063 21.9056 14.8329 21.9056C14.686 21.9784 14.6126 21.9784 14.6126 22.0512C14.686 22.0512 14.7595 22.124 14.8329 22.1967C14.8329 22.1967 14.8329 22.124 14.9063 22.124L14.9797 22.0512C14.9797 22.0512 15.0532 22.0512 15.0532 21.9784C15.1266 21.9784 15.1266 21.9784 15.1266 21.9784C15.1266 21.9784 15.1266 22.0512 15.0532 22.0512C15.0532 22.0512 15.0532 22.124 14.9797 22.124L14.9063 22.1967C14.9797 22.1967 15.1266 22.2695 15.1266 22.3423C15.2 22.3423 15.2 22.3423 15.2735 22.3423C15.2735 22.3423 15.2735 22.3423 15.2735 22.2695C15.2735 22.1967 15.2735 22.1967 15.2735 22.124C15.2735 22.0512 15.3469 22.0512 15.3469 21.9784C15.3469 21.9056 15.4203 21.9056 15.4203 21.9056L15.4938 21.8329C15.5672 21.8329 15.5672 21.7601 15.5672 21.7601C15.5672 21.7601 15.5672 21.8329 15.4938 21.8329L15.4203 21.9056L15.3469 21.9784C15.2735 22.0512 15.2735 22.0512 15.2735 22.124H15.3469C15.4203 22.124 15.4938 22.124 15.4938 22.2695C15.5672 22.2695 15.6406 22.2695 15.6406 22.1967C15.6406 22.124 15.6406 22.124 15.714 22.0512C15.714 22.0512 15.714 21.9784 15.7875 21.9784C15.7875 21.9784 15.7875 21.9056 15.8609 21.9056C15.9343 21.9056 15.9343 21.8329 16.0078 21.8329L16.0812 21.7601C16.1546 21.7601 16.2281 21.6873 16.2281 21.6873C16.2281 21.6873 16.2281 21.7601 16.1546 21.7601C16.0812 21.8329 16.0078 21.9056 16.0078 21.9056L15.9343 21.9784C15.9343 21.9784 16.0078 21.9784 16.0812 21.9784C16.1546 21.9784 16.2281 21.9784 16.2281 22.1967C16.4483 22.124 16.4483 21.9056 16.5218 21.6145V21.5418C16.5218 21.3962 16.6686 21.2506 16.7421 21.1779C16.5952 19.5768 16.5952 18.9946 16.5952 18.9218V18.849C16.6686 18.7763 16.6686 18.6307 16.6686 18.4851C16.6686 18.4124 16.6686 18.4124 16.5952 18.4124H16.5218H16.4483C16.3015 18.3396 16.0812 18.2668 15.9343 18.194C15.4203 17.9029 15.4203 17.4663 15.4203 16.8113C15.4203 16.1563 15.2735 15.7924 15.2735 15.7924V16.0108C15.2 15.8652 15.1266 15.6469 15.1266 15.6469C15.1266 15.6469 15.1266 15.6469 15.2 15.6469C15.2 15.6469 15.2 15.6469 15.1266 15.6469C15.1266 15.6469 15.2 15.6469 15.2735 15.6469C15.4938 15.6469 15.9343 15.6469 16.3749 15.6469C16.8155 15.6469 17.1826 15.6469 17.2561 15.6469C17.3295 15.6469 17.5498 15.5741 17.7701 15.5741C17.9904 15.5013 18.1372 15.4285 18.1372 15.4285L18.2107 15.3558C18.2107 15.3558 18.2841 15.3558 18.2841 15.283C18.5778 15.1374 18.7981 14.9919 18.945 14.7008C19.0184 14.628 19.0918 14.4825 19.0918 14.4097C19.3121 14.0458 19.1653 13.6819 19.0918 13.4636C19.2387 13.3908 19.1653 13.318 19.0918 13.1725Z" fill="white"/>
<path d="M6.31502 15.1374C6.24159 15.0647 6.31502 14.7736 6.31502 14.7736C6.16816 14.7736 6.09473 14.9191 6.09473 14.9191C6.24159 15.2102 6.31502 15.1374 6.31502 15.1374Z" fill="white"/>
<path d="M0 0V14.3369C0 20.7412 7.857 27 10.5739 27C13.0705 27 21.1478 20.7412 21.1478 14.3369V0H0ZM19.2386 15.2102C19.3121 15.283 19.3855 15.4286 19.3855 15.5741C19.3855 15.6469 19.3855 15.7197 19.4589 15.8652V15.938C19.4589 16.0108 19.4589 16.0836 19.4589 16.1563V16.3019L19.3121 16.1563L19.2386 16.0836L19.1652 16.0108C19.0184 15.938 18.8715 15.8652 18.7246 15.8652C18.6512 15.8652 18.6512 15.8652 18.5778 15.8652C18.5043 15.8652 18.4309 15.7925 18.3575 15.7925H18.2841C18.1372 15.8652 17.77 15.938 17.0357 16.0108C17.1092 16.0836 17.3295 16.2291 17.5498 16.3019L17.77 16.3747L17.5498 16.4474C17.5498 16.4474 17.1826 16.593 16.8155 16.593C16.5217 16.593 16.3749 16.5202 16.228 16.4474C16.228 16.4474 16.228 16.4474 16.228 16.5202C16.3014 16.593 16.3014 16.593 16.4483 16.6658L16.6686 16.7385L16.4483 16.8113C16.4483 16.8113 16.3014 16.8841 16.1546 16.8841C16.0077 16.8841 15.7874 16.8841 15.6406 16.7385C15.714 16.9569 15.714 17.248 15.714 17.6119C15.714 18.2668 15.714 18.558 16.1546 18.8491C16.3749 18.9946 16.5217 19.0674 16.6686 19.0674C16.6686 19.0674 16.6686 19.0674 16.742 19.0674H16.8155C16.8889 19.0674 16.8889 19.1402 16.9623 19.2129C16.9623 19.3585 16.9623 19.504 16.8889 19.6496C16.9623 19.6496 17.1092 19.7224 17.4029 19.7224C17.77 19.7224 17.8435 20.0135 17.9169 20.159C17.9903 20.3046 18.0638 20.4501 18.1372 20.4501H18.2841L18.2106 20.5229C18.2106 20.5229 18.1372 20.5957 18.0638 20.5957C17.9903 20.5957 17.8435 20.5229 17.6966 20.4501C17.6232 20.3774 17.5498 20.3774 17.4763 20.3774C17.4029 20.3774 17.4029 20.3774 17.3295 20.3774C17.4763 20.4501 17.6966 20.6685 17.6966 20.9596C17.6966 21.3962 17.77 21.469 17.77 21.5418L17.8435 21.6873L17.6232 21.3235C17.6232 21.3235 17.4763 21.2507 17.3295 21.0323C17.256 20.9596 17.256 20.9596 17.1826 20.9596C17.256 21.0323 17.3295 21.2507 17.3295 21.5418C17.3295 21.6146 17.3295 21.6873 17.4029 21.7601L17.4763 21.9057H17.3295C17.256 21.9057 17.1826 21.8329 17.1092 21.8329C17.0357 21.7601 16.9623 21.7601 16.8889 21.6873C16.8155 21.7601 16.742 21.9057 16.742 21.9784V22.0512C16.742 22.2695 16.742 22.7062 16.3014 22.779C16.228 22.779 16.228 22.779 16.1546 22.779C16.1546 22.779 16.1546 22.779 16.0812 22.779C16.0812 22.779 16.0812 22.779 16.0812 22.8518V22.9245H16.0077C16.0077 22.9245 15.9343 22.9245 15.9343 22.8518C15.9343 22.8518 15.8609 22.779 15.8609 22.7062C15.7874 22.7062 15.7874 22.779 15.6406 22.779C15.5671 22.779 15.5671 22.779 15.4937 22.779C15.4203 22.779 15.4203 22.8518 15.3469 22.9245C15.3469 22.9245 15.2734 22.9245 15.2734 22.8518C15.2734 22.779 15.2734 22.779 15.2734 22.7062C15.2 22.7062 15.1266 22.7062 15.0531 22.7062C14.9797 22.7062 14.9063 22.779 14.9063 22.8518V22.9245L14.8329 22.8518C14.8329 22.8518 14.7594 22.779 14.8329 22.6334C14.8329 22.6334 14.8328 22.6334 14.7594 22.6334H14.686C14.6126 22.6334 14.5391 22.7062 14.4657 22.779V22.8518V22.5606C14.4657 22.5606 14.3923 22.4151 14.5391 22.1968C14.5391 21.9057 14.7594 21.8329 14.9063 21.8329C14.9063 21.8329 14.9063 21.8329 14.9797 21.8329C15.3469 21.6873 15.4203 21.3962 15.4203 21.1779C15.4203 20.5957 15.2734 19.9407 15.1266 19.7224C14.9797 19.504 14.686 19.3585 14.2454 19.2129C13.8783 19.1402 13.5845 18.9218 13.4377 18.6307C13.2908 18.8491 13.2908 19.2129 13.2908 19.2129C13.2908 19.3585 13.4377 19.7224 13.5845 19.8679C13.658 20.0135 13.7314 20.0863 13.7314 20.159C13.7314 20.3046 13.7314 20.3774 13.658 20.4501C13.8048 20.6685 13.8048 21.0323 13.7314 21.1779C13.658 21.3235 13.5111 21.6873 13.5111 21.6873L13.4377 21.8329L13.2908 21.469C13.2174 21.8329 12.8502 22.124 12.8502 22.124L12.63 22.3423L12.7768 22.0512C12.8502 21.9057 12.7768 21.7601 12.7768 21.6873C12.7034 21.8329 12.5565 21.9784 12.5565 21.9784L12.4097 22.0512L12.4831 21.9057C12.4831 21.9057 12.5565 21.7601 12.4831 21.6146C12.4831 21.6146 12.4097 21.6873 12.3362 21.7601C12.2628 21.8329 12.1159 22.0512 11.9691 22.124C11.8957 22.124 11.8957 22.124 11.8222 22.124C11.7488 22.124 11.6754 22.0512 11.6019 22.0512C11.5285 22.124 11.4551 22.1968 11.4551 22.1968V22.2695L11.3816 22.1968C11.3816 22.124 11.3082 22.0512 11.3082 22.0512H11.2348C11.1614 22.0512 11.0879 22.0512 11.0879 22.0512C10.9411 22.124 10.8676 22.1968 10.8676 22.1968L10.7942 22.2695V22.1968C10.7942 22.124 10.7942 22.0512 10.7942 21.9784H10.7208C10.6473 21.9784 10.5739 22.124 10.5739 22.124L10.5005 22.1968L10.2802 21.9784C10.2802 21.9057 10.2802 21.8329 10.2802 21.7601H10.2068C10.1333 21.7601 10.0599 21.8329 10.0599 21.8329L9.98647 21.9057V21.8329C9.98647 21.8329 9.91304 21.6146 10.1333 21.469C10.1333 21.1779 10.5739 20.9596 10.6473 20.9596C10.6473 20.9596 11.6019 20.5229 11.9691 20.2318C12.1159 20.0863 12.1894 19.8679 12.0425 19.6496C11.8957 19.4313 11.7488 19.1402 11.6019 18.9946L11.5285 18.9218C11.3816 18.7035 11.2348 18.558 11.1614 18.2668C11.1614 18.1941 11.1614 18.1941 11.1614 18.1213C11.0879 18.1213 11.0145 18.1213 10.8676 18.1213C10.7942 18.1213 10.6473 18.1213 10.5739 18.0485L11.0145 18.6307L10.7942 18.558C10.7942 18.558 10.5739 18.4852 10.2068 18.4124C10.0599 18.4124 9.91304 18.3396 9.83961 18.2668C9.83961 18.4124 9.83961 18.6307 9.76618 18.8491L9.69275 19.1402L9.54589 18.9218C9.54589 18.9218 9.47246 18.6307 9.25217 18.558C9.10531 18.558 9.03188 18.4852 8.95845 18.4852L9.03188 18.7035C9.03188 18.7763 9.03188 18.8491 8.73816 19.1402C8.81159 19.2129 9.03188 19.4313 9.03188 19.7224C9.03188 20.0135 9.10531 20.159 9.25217 20.3046L9.3256 20.3774H9.17874C9.17874 20.3774 9.17874 20.3774 9.10531 20.3774C9.03188 20.3774 8.88502 20.3774 8.73816 20.159C8.66473 20.0863 8.66473 20.0863 8.5913 20.0135C8.5913 20.0863 8.66473 20.159 8.66473 20.2318C8.66473 20.3046 8.66473 20.4501 8.66473 20.5229C8.66473 20.5957 8.66473 20.5957 8.66473 20.6685C8.66473 20.7412 8.66473 20.814 8.66473 20.8868C8.66473 20.9596 8.66473 21.0323 8.66473 21.0323V21.2507L8.5913 21.1779C8.5913 21.1779 8.44444 21.1051 8.37101 20.814V20.7412C8.37101 20.8868 8.44444 21.0323 8.37101 21.1779C8.37101 21.5418 8.37101 21.6873 8.37101 21.6873V21.9057L8.22415 21.7601C8.22415 21.7601 8.07729 21.6146 8.00386 21.3962C8.00386 21.3235 7.93043 21.2507 7.857 21.2507C7.857 21.3235 7.93043 21.7601 7.78357 22.0512L7.63671 22.2695V22.0512C7.63671 21.9784 7.63671 21.8329 7.56328 21.7601H7.48985C7.41642 21.7601 7.343 21.7601 7.19614 21.9057C7.19614 21.9057 7.1227 21.9784 7.1227 22.1968C7.1227 22.4151 6.97584 22.4151 6.90241 22.4151H6.82899C6.75556 22.4879 6.68213 22.4879 6.53526 22.4879C6.53526 22.4879 6.53527 22.4879 6.46184 22.4879C6.38841 22.5606 6.38841 22.5606 6.38841 22.6334V22.7062H6.31498C6.31498 22.7062 6.24155 22.7062 6.24155 22.6334C6.24155 22.6334 6.24155 22.5606 6.16812 22.4879C6.16812 22.4879 6.09469 22.4879 6.02126 22.4879C5.94783 22.4879 5.94783 22.4879 5.8744 22.4879C5.80097 22.5606 5.72754 22.6334 5.72754 22.6334L5.65411 22.7062L5.58068 22.6334C5.58068 22.5606 5.50725 22.4879 5.50725 22.4879C5.43382 22.4879 5.36039 22.4879 5.36039 22.4151C5.28696 22.4879 5.21353 22.5606 5.21353 22.5606L5.1401 22.6334L5.06667 22.5606C5.1401 22.6334 5.1401 22.4879 5.1401 22.4151H5.06667C4.99324 22.4879 4.91981 22.4879 4.91981 22.5606V22.6334L4.84638 22.5606C4.84638 22.5606 4.77295 22.4151 4.84638 22.1968C4.84638 21.9784 4.91981 21.9057 5.1401 21.8329C5.1401 21.8329 5.21353 21.8329 5.28696 21.7601C5.43382 21.6873 5.65411 21.6146 5.80097 21.469C5.94783 21.3962 6.02126 21.0323 6.09469 20.9596C6.09469 20.9596 6.31498 20.3046 6.38841 19.9407C6.46184 19.6496 6.46184 19.1402 6.53526 18.7763V18.7035C6.53526 18.6307 6.53526 18.6307 6.53526 18.558C6.53526 18.4852 6.46184 18.4124 6.38841 18.2668L6.31498 18.1941C6.16812 18.0485 6.02126 17.903 5.94783 17.6846C5.72754 17.7574 5.58068 17.8302 5.58068 17.8302C5.21353 17.9757 4.99324 18.0485 4.69952 17.9757C4.55266 17.9757 4.4058 17.8302 4.25894 17.7574C4.25894 17.7574 4.25894 17.7574 4.18551 17.6846L4.11208 17.6119C4.11208 17.6119 4.11208 17.6119 4.03865 17.6119C3.96522 17.6119 3.81836 17.6846 3.59807 17.6846C3.45121 17.6846 3.37778 17.6846 3.23092 17.6846L2.57005 17.6119L2.64348 17.4663C2.64348 17.4663 2.79034 17.3935 3.01063 17.248C3.08406 17.1752 3.15749 17.1024 3.15749 17.1024C3.08406 17.1024 3.08406 17.1024 3.01063 17.1024C2.86377 17.1024 2.64348 17.0296 2.49662 16.9569C2.2029 16.7385 1.90918 16.6658 1.90918 16.6658H1.76232L1.90918 16.593C1.90918 16.593 2.05604 16.5202 2.27633 16.4474C2.49662 16.3747 2.64348 16.2291 2.79034 16.1563C2.64348 16.1563 2.42319 16.0836 2.27633 16.0108C1.98261 15.8652 1.76232 15.7925 1.76232 15.7925H1.68889L1.76232 15.7197C1.76232 15.7197 1.83575 15.5741 2.2029 15.5741C2.42319 15.5741 2.64348 15.4286 2.57005 15.2102C2.57005 14.9919 2.42319 14.7736 2.42319 14.7736C2.42319 14.7736 2.34976 14.7736 2.34976 14.7008C2.34976 14.7008 2.27633 14.7008 2.27633 14.628C2.2029 14.5553 2.05604 14.5553 1.90918 14.3369C1.83575 14.3369 1.54203 14.2642 1.54203 14.0458V13.973C1.4686 13.9003 1.39517 13.7547 1.39517 13.6092V13.5364L1.4686 13.6092C1.4686 13.6092 1.61546 13.6819 1.68889 13.7547C1.76232 13.6819 1.76232 13.6819 1.76232 13.6819C1.83575 13.6819 1.90918 13.7547 1.90918 13.7547C1.90918 13.6819 1.83575 13.6092 1.76232 13.6092C1.54203 13.3908 1.4686 13.2453 1.4686 13.0997C1.4686 13.027 1.4686 13.027 1.4686 13.027C1.39517 12.9542 1.39517 12.8814 1.32174 12.8814H1.24831L1.32174 12.8086C1.39517 12.7358 1.39517 12.7358 1.4686 12.7358C1.54203 12.7358 1.61546 12.8086 1.68889 12.8086C1.68889 12.8086 1.76232 12.8086 1.83575 12.8086C1.90918 12.8086 1.98261 12.8086 1.98261 12.8814C1.98261 12.8814 1.98261 12.8814 1.98261 12.9542C1.98261 12.8814 1.90918 12.7358 1.98261 12.6631C1.98261 12.5903 2.05604 12.5903 2.05604 12.5903C2.05604 12.5175 1.98261 12.4447 1.98261 12.4447L1.90918 12.2992H2.05604C2.2029 12.372 2.34976 12.372 2.34976 12.4447C2.42319 12.4447 2.49662 12.4447 2.57005 12.5903H2.64348C2.64348 12.5175 2.57005 12.372 2.57005 12.372L2.49662 12.2992H2.64348C2.79034 12.2992 2.86377 12.372 2.9372 12.4447C2.9372 12.5175 3.01063 12.5175 3.01063 12.5903C3.08406 12.5903 3.08406 12.5903 3.15749 12.6631C3.15749 12.6631 3.23092 12.8086 3.23092 12.9542C3.23092 13.027 3.23092 13.027 3.23092 13.0997C3.23092 13.2453 3.15749 13.4636 3.23092 13.5364V13.6092C3.30435 13.7547 3.37778 14.0458 3.74493 14.4825C3.89179 14.628 4.03865 14.7736 4.25894 14.9191V14.8464C4.25894 14.4825 4.33237 14.2642 4.4058 14.0458C4.33237 14.0458 4.25894 14.0458 4.18551 14.0458C4.03865 14.0458 3.81836 13.973 3.74493 13.9003L3.30435 13.6092L3.81836 13.7547C3.81836 13.7547 3.81836 13.7547 3.89179 13.7547C3.96522 13.7547 4.18551 13.6819 4.4058 13.2453C4.33237 13.2453 4.33237 13.3181 4.25894 13.3908L4.03865 13.8275V13.4636C4.03865 13.4636 4.11208 13.027 4.62609 12.6631C4.55266 12.5903 4.55266 12.5175 4.55266 12.5175C4.55266 12.372 4.55266 12.2264 4.69952 12.0809C4.77295 12.0081 4.84638 11.9353 4.99324 11.9353L5.06667 11.8625L5.1401 11.7898C5.21353 11.7898 5.21353 11.717 5.28696 11.717H5.21353H5.06667L5.1401 11.5714C5.1401 11.5714 5.1401 11.4987 5.21353 11.4987C5.28696 11.4259 5.36039 11.4259 5.43382 11.3531C5.58068 11.2803 5.72754 11.2803 5.8744 11.2803C5.8744 11.2803 5.8744 11.2803 5.94783 11.2803C5.8744 11.2075 5.8744 11.2075 5.80097 11.1348C5.72754 11.062 5.65411 10.9164 5.58068 10.8437L5.50725 10.5526L5.65411 10.7709C5.65411 10.7709 5.80097 10.9164 6.02126 10.9164C6.09469 10.9164 6.09469 10.9164 6.16812 10.9164H6.24155C6.16812 10.8437 6.02126 10.5526 6.02126 10.407L5.94783 10.0431L6.16812 10.3342C6.24155 10.4798 6.31498 10.4798 6.38841 10.5526C6.53527 10.6253 6.6087 10.6253 6.68213 10.6253C6.90242 10.6253 7.26957 10.8437 7.41643 11.062C7.41643 10.9892 7.48985 10.8437 7.41643 10.6253L7.34299 10.4798H7.48985C7.63671 10.4798 8.00386 10.6981 8.07729 11.062C8.15072 11.062 8.22415 10.9892 8.29758 10.9892C8.51787 10.9892 8.73816 11.062 8.95845 11.5714L9.10531 11.8625L8.88502 11.6442C9.03188 11.7898 9.10531 11.9353 9.17874 12.2264C9.3256 12.7358 9.54589 13.2453 9.91304 13.2453H10.0599L9.98647 13.3908C9.98647 13.3908 9.83961 13.5364 9.61932 13.6092C9.69275 13.9003 9.83961 14.9191 10.5739 14.9191H10.6473H10.9411L10.7942 14.9919C10.9411 14.9919 11.2348 15.0647 11.5285 15.0647C11.8222 15.0647 12.1159 14.9919 12.3362 14.9191C12.5565 14.8464 12.7768 14.7736 12.9971 14.7736C13.0705 14.7736 13.0705 14.7736 13.144 14.7736C13.3643 14.7736 13.5111 14.8464 13.7314 14.8464C13.8048 14.8464 13.8048 14.8464 13.8783 14.8464C14.172 14.9191 14.4657 14.9191 14.686 14.9919C15.2734 15.0647 15.7874 15.1375 16.3014 15.1375C16.4483 15.1375 16.6686 15.1375 16.8155 15.1375C16.8889 15.1375 16.8889 15.1375 16.9623 15.1375C17.3295 15.1375 17.5498 15.1375 17.77 15.0647C17.9903 14.9919 18.3575 14.8464 18.5778 14.628C18.7981 14.4097 18.8715 14.0458 18.7981 13.8275C18.7246 13.5364 18.5043 13.3181 18.1372 13.0997C17.6966 12.8814 17.1826 12.8814 16.6686 13.027C16.4483 13.0997 16.228 13.1725 16.1546 13.3181C16.0077 13.4636 15.9343 13.6819 16.0077 13.8275C16.0812 14.0458 16.228 14.1914 16.4483 14.3369L16.5952 14.4825H16.3749C16.1546 14.4825 15.8609 14.4825 15.5671 14.3369C15.3469 14.2642 15.2 14.1186 15.0531 13.9003C14.9797 13.973 14.9797 13.973 14.9063 14.0458C14.9063 14.0458 14.8329 14.0458 14.8329 14.1186C14.686 14.1914 14.6126 14.2642 14.4657 14.3369C14.3188 14.4097 14.172 14.4825 14.0251 14.4825C13.9517 14.4825 13.8048 14.5553 13.5845 14.5553H13.5111H13.2908L13.5111 14.4825C13.658 14.4097 13.8048 14.2642 13.8048 14.1914C13.8783 14.1186 13.8783 14.0458 13.8783 13.973C13.8048 14.0458 13.7314 14.0458 13.658 14.1186C13.5845 14.1914 13.5111 14.2642 13.3643 14.3369C13.0705 14.4825 12.7034 14.5553 12.4097 14.4825L12.1894 14.4097L12.3362 14.3369C12.4831 14.2642 12.7034 14.1914 12.8502 14.0458C12.9237 13.973 12.9971 13.973 12.9237 13.9003H12.8502C12.7034 13.9003 12.5565 13.9003 12.4097 13.973C12.2628 13.973 12.1159 14.0458 11.9691 14.0458C11.6019 14.0458 11.1614 13.973 10.7942 13.8275C10.1333 13.4636 9.83961 13.027 9.91304 12.4447C10.0599 11.2803 11.5285 11.2075 12.5565 11.2075C12.7768 11.2075 12.9237 11.2075 13.0705 11.2075C13.2174 11.2075 13.3643 11.2075 13.4377 11.1348C13.5845 11.062 13.658 10.9892 13.8048 10.8437C14.2454 10.407 14.7594 10.3342 14.9797 10.3342C14.9797 10.3342 15.6406 10.2615 15.9343 9.67925L16.0812 9.31536V9.67925C16.0812 9.89757 16.0077 10.1159 15.9343 10.2615V10.3342L16.0077 10.2615L16.0812 10.1887C16.1546 10.1159 16.228 10.1159 16.3749 10.0431C16.5217 9.97035 16.6686 9.89757 16.8155 9.89757C16.9623 9.89757 17.1092 9.8248 17.3295 9.89757C17.4763 9.89757 17.5498 9.97035 17.6966 9.97035C17.8435 10.0431 18.0638 10.0431 18.2841 10.0431C18.5778 10.0431 18.7981 9.97035 18.7981 9.97035L18.9449 9.89757L18.8715 10.0431C18.8715 10.0431 18.7246 10.4798 17.8435 10.5526H17.77C17.6966 10.5526 17.6966 10.5526 17.6232 10.5526C17.4763 10.5526 17.3295 10.6253 17.1826 10.7709C17.1092 10.8437 17.1092 10.8437 17.0357 10.9164C16.9623 10.9892 16.8889 11.062 16.8155 11.062C16.742 11.062 16.742 11.1348 16.6686 11.1348C16.8889 11.2075 17.256 11.2803 17.4029 11.5714V11.6442L17.4763 11.7898H17.3295C17.1826 11.717 16.9623 11.717 16.8155 11.7898C16.6686 11.7898 16.5952 11.8625 16.5217 11.8625C16.5217 11.8625 16.4483 11.8625 16.3749 11.9353C16.3014 11.9353 16.228 12.0081 16.1546 12.0081C15.8609 12.0809 15.5671 12.2264 15.2734 12.2264C14.9063 12.2264 14.5391 12.0809 14.2454 11.9353C14.0985 11.8625 13.9517 11.7898 13.8783 11.7898C13.5111 11.6442 13.0705 11.5714 12.63 11.5714C12.3362 11.5714 12.1159 11.5714 11.8222 11.6442C11.3082 11.717 10.6473 12.0081 10.5005 12.2992C10.4271 12.4447 10.5005 12.5903 10.5739 12.8086C10.6473 12.9542 10.7942 13.027 10.9411 13.1725C11.2348 13.3181 11.5285 13.3908 11.8957 13.3908C12.0425 13.3908 12.2628 13.3908 12.4831 13.3181C13.144 13.2453 13.8048 13.027 14.3923 12.8814C14.6126 12.8086 14.8328 12.7358 15.1266 12.7358C15.714 12.5903 16.4483 12.4447 17.1092 12.4447C17.9169 12.4447 18.5778 12.7359 18.9449 13.2453C19.0918 13.3908 19.0918 13.5364 19.1652 13.6092C19.3121 13.9003 19.3855 14.2642 19.1652 14.7008C19.0918 14.8464 19.0184 15.0647 18.8715 15.2102C19.1652 15.0647 19.2386 15.1375 19.2386 15.2102ZM20.9275 7.20485H17.9169V8.73315H15.3469V7.20485H11.8222V8.73315H9.25217V7.20485H5.72754V8.73315H3.08406V7.20485H0.22029V0.291105H20.9275V7.20485Z" fill="white"/>
<path d="M13.1439 17.6118C13.0705 17.6118 12.6299 17.3935 12.1159 17.3935C11.969 17.3935 11.8956 17.3935 11.7487 17.4663L12.1893 17.8302L11.455 17.7574H11.3816C11.3816 17.8302 11.3082 17.9029 11.3082 17.9757H11.3816L11.3082 18.0485C11.3082 18.1213 11.3082 18.1213 11.3082 18.194C11.3816 18.4124 11.5285 18.5579 11.6019 18.7762L11.6753 18.849C11.8222 18.9946 11.969 19.2857 12.1159 19.504C12.2628 19.7951 12.2628 20.0862 12.0425 20.3045C11.6753 20.6684 10.7207 21.0323 10.6473 21.0323C10.6473 21.0323 10.3536 21.1779 10.2802 21.3234C10.3536 21.3234 10.427 21.3234 10.427 21.3962C10.427 21.3962 10.427 21.469 10.427 21.5417L10.5004 21.469L10.5739 21.3962H10.6473C10.7207 21.3962 10.7207 21.3962 10.7207 21.3962C10.7207 21.3962 10.7207 21.3962 10.6473 21.469L10.5739 21.5417H10.5004C10.5739 21.5417 10.5739 21.5417 10.5739 21.6145C10.5739 21.6145 10.5739 21.6873 10.5739 21.7601C10.5739 21.7601 10.5739 21.6873 10.6473 21.6873C10.6473 21.6145 10.7207 21.6145 10.7207 21.6145C10.7942 21.6145 10.7942 21.5417 10.8676 21.5417C10.941 21.5417 10.941 21.5417 10.941 21.469C11.0145 21.469 11.0879 21.469 11.0879 21.469C11.0879 21.469 11.0879 21.5417 11.0145 21.5417L10.941 21.6145L10.8676 21.6873C10.941 21.6873 10.941 21.6873 10.941 21.6873C11.0145 21.6873 11.0145 21.7601 11.0145 21.8328C11.0145 21.8328 11.0145 21.8328 11.0879 21.8328C11.1613 21.8328 11.1613 21.8328 11.2347 21.8328C11.2347 21.7601 11.2347 21.7601 11.3082 21.6873C11.3082 21.6873 11.3082 21.6145 11.3816 21.6145L11.455 21.5417C11.5285 21.5417 11.5285 21.469 11.6019 21.469C11.6753 21.469 11.6753 21.3962 11.7487 21.3962C11.8222 21.3962 11.8956 21.3234 11.8956 21.3234C11.8956 21.3234 11.8956 21.3962 11.8222 21.3962C11.7488 21.469 11.6753 21.5417 11.6019 21.6145C11.6019 21.6145 11.6019 21.6145 11.5285 21.6873C11.6753 21.6873 11.6753 21.8328 11.7487 21.9056C11.7487 21.9056 11.7488 21.9056 11.8222 21.9056H11.8956C12.0425 21.8328 12.1159 21.6873 12.1893 21.6145C12.1893 21.6145 12.2628 21.469 12.3362 21.469C12.4096 21.469 12.6299 21.2506 12.8502 21.0323C12.9236 20.9595 13.0705 20.8868 13.1439 20.814C13.2908 20.6684 13.4376 20.5229 13.5845 20.4501C13.6579 20.4501 13.6579 20.3773 13.6579 20.3773C13.6579 20.3773 13.6579 20.3773 13.6579 20.3045C13.6579 20.3045 13.6579 20.3045 13.6579 20.2318C13.6579 20.2318 13.6579 20.2318 13.6579 20.159C13.6579 20.159 13.6579 20.159 13.6579 20.0862V20.0134C13.5111 19.7951 13.3642 19.504 13.3642 19.2129C13.3642 19.1401 13.3642 18.7035 13.5845 18.4851C13.5845 18.4124 13.5111 18.3396 13.5111 18.3396C13.2173 17.9757 13.1439 17.6118 13.1439 17.6118Z" fill="white"/>
<path d="M6.38841 15.5013C6.38841 15.5741 6.31498 15.5741 6.38841 15.5013C6.38841 15.5741 6.38841 15.5741 6.31498 15.5741C6.31498 15.5741 6.31498 15.6469 6.31498 15.7197C6.31498 15.7924 6.24155 15.7924 6.31498 15.8652H6.38841L6.46184 15.7924C6.38841 15.7924 6.38841 15.7197 6.38841 15.6469C6.38841 15.6469 6.38841 15.5741 6.38841 15.5013Z" fill="white"/>
<path d="M7.19617 14.5553C7.19617 14.5553 7.34303 14.5553 7.56332 14.5553C7.71018 14.5553 7.85704 14.5553 8.0039 14.5553V14.4825L7.93047 14.1914C7.78361 14.1914 7.63675 14.2642 7.41646 14.2642C7.2696 14.2642 7.19617 14.3369 7.04931 14.3369C7.04931 14.3369 7.19617 14.2642 7.41646 14.1914C7.56332 14.1186 7.85704 14.1186 8.07733 14.0458C8.07733 14.0458 8.07733 13.9731 8.07733 13.8275C8.07733 13.7547 8.07733 13.7547 8.07733 13.6819C8.07733 13.6092 8.07733 13.5364 8.07733 13.5364C8.07733 13.3908 8.07733 13.2453 8.0039 12.8814C7.85704 12.4448 7.63675 12.372 7.56332 12.372H7.48989L7.56332 12.2992C7.56332 12.2992 7.56332 12.2992 7.56332 12.2264C7.41646 12.2264 7.34303 12.2992 7.34303 12.2992L7.12274 12.372V12.2992C7.12274 12.2264 7.04931 12.1536 7.04931 12.1536V12.5903L6.90245 12.2264C6.90245 12.1536 6.82902 12.1536 6.75559 12.0809C6.75559 12.1536 6.82902 12.2992 6.82902 12.2992V12.5903L6.68216 12.372C6.68216 12.372 6.60873 12.2992 6.5353 12.2992V12.372L6.60873 12.5175L6.46187 12.372C6.38844 12.2992 6.38844 12.2992 6.31501 12.2992C6.16815 12.2992 5.94786 12.5175 5.87443 12.6631C5.72757 12.8814 5.65414 13.0997 5.65414 13.3181C5.65414 13.4636 5.43385 13.9003 5.43385 13.9731V14.0458C5.65414 14.1186 5.87443 14.1914 6.02129 14.2642C6.16815 14.3369 6.24158 14.4097 6.24158 14.4097C6.16815 14.3369 6.02129 14.3369 5.94786 14.2642C5.72757 14.1914 5.50728 14.1186 5.36042 14.0458C5.36042 14.1186 5.28699 14.2642 5.28699 14.3369C5.36042 14.3369 5.36042 14.3369 5.43385 14.3369L5.50728 14.2642V14.3369C5.58071 14.3369 5.72757 14.3369 5.801 14.3369C6.02129 14.3369 6.16815 14.4097 6.16815 14.4097C6.02129 14.4097 5.87443 14.3369 5.801 14.3369C5.72757 14.3369 5.65414 14.3369 5.58071 14.3369V14.5553C5.58071 14.628 5.58071 14.7008 5.58071 14.7736V14.7008L5.65414 14.5553L5.72757 14.7008C5.72757 14.7008 5.801 14.7008 5.801 14.628C6.02129 14.628 6.16815 14.5553 6.16815 14.5553C6.02129 14.628 5.87443 14.628 5.72757 14.7008C5.65414 14.7008 5.65414 14.7008 5.65414 14.7736L6.02129 15.8652C6.09472 16.0836 6.09472 16.1563 6.09472 16.1563C6.09472 16.3747 6.09472 16.5202 6.16815 16.593C6.16815 16.3747 6.31501 16.3019 6.31501 16.3019L6.46187 16.2291V16.3747C6.46187 16.4475 6.46187 16.5202 6.46187 16.593C6.46187 16.5202 6.5353 16.4475 6.5353 16.4475L6.60873 16.3747L6.68216 16.4475C6.68216 16.4475 6.75559 16.5202 6.75559 16.7386V16.8113C6.75559 16.8113 6.82902 16.8113 6.82902 16.7386L6.90245 16.6658C7.04931 16.593 7.04931 16.3747 7.04931 16.3747L7.12274 16.0836L7.19617 16.3747C7.19617 16.4475 7.19617 16.5202 7.19617 16.5202C7.2696 16.4475 7.2696 16.3747 7.2696 16.3747C7.2696 16.3019 7.2696 16.0836 7.2696 16.0108V15.938C7.2696 15.8652 7.48989 15.5014 7.63675 15.283C7.63675 15.283 7.71018 15.1375 7.85704 14.9919C7.78361 14.9191 7.63675 14.8464 7.48989 14.8464C7.34303 14.7736 7.2696 14.7736 7.12274 14.7008C7.12274 14.7008 7.2696 14.7736 7.48989 14.8464C7.56332 14.9191 7.71018 14.9191 7.85704 14.9919C7.93047 14.9191 7.93047 14.8464 8.0039 14.8464C8.07733 14.7736 8.07733 14.7008 8.07733 14.628C7.93047 14.628 7.78361 14.5553 7.63675 14.5553C7.48989 14.5553 7.34303 14.5553 7.19617 14.5553ZM6.16815 14.3369C6.16815 14.2642 6.16815 14.2642 6.16815 14.3369C6.16815 14.2642 6.16815 14.2642 6.16815 14.3369C6.09472 14.2642 6.09472 14.2642 6.09472 14.2642V14.1914C6.09472 14.0458 6.38844 13.6819 6.38844 13.6819C6.38844 13.6819 6.38844 13.6092 6.38844 13.5364C6.38844 13.4636 6.38844 13.4636 6.38844 13.4636C6.38844 13.4636 6.31501 13.6092 6.16815 13.6092C6.02129 13.6092 5.94786 13.4636 5.94786 13.3181H5.87443L5.801 13.2453C5.801 13.2453 6.02129 13.0997 6.09472 13.1725H6.16815C6.24158 13.2453 6.38844 13.3181 6.46187 13.3908C6.46187 13.3908 6.46187 13.4636 6.38844 13.4636V13.5364C6.38844 13.5364 6.38844 13.6092 6.31501 13.6819C6.24158 13.7547 6.16815 13.9003 6.09472 14.0458C6.09472 14.0458 6.82902 13.9731 7.04931 14.1914V14.1186C6.97588 13.9003 6.97588 13.7547 6.97588 13.6092C6.97588 13.4636 7.04931 13.3908 7.04931 13.3908C7.12274 13.3908 7.34303 13.2453 7.41646 13.2453C7.48989 13.2453 7.71018 13.3908 7.71018 13.3908L7.63675 13.4636C7.63675 13.4636 7.56332 13.3908 7.48989 13.4636C7.48989 13.4636 7.41646 13.6092 7.34303 13.6819C7.19617 13.6819 7.12274 13.682 7.04931 13.6092C7.04931 13.6092 6.97588 13.682 7.04931 13.8275C7.04931 13.9731 7.12274 14.1914 7.12274 14.2642C7.12274 14.3369 6.97588 14.3369 6.90245 14.3369C6.82902 14.3369 6.68216 14.4097 6.68216 14.4097C6.68216 14.4097 6.5353 14.5553 6.31501 14.3369C6.31501 14.3369 6.16815 14.3369 6.09472 14.3369C6.24158 14.3369 6.24158 14.3369 6.16815 14.3369C6.24158 14.3369 6.24158 14.3369 6.16815 14.3369C6.24158 14.3369 6.24158 14.3369 6.16815 14.3369C6.24158 14.3369 6.24158 14.3369 6.16815 14.3369ZM7.34303 14.9919C7.34303 14.9919 7.34303 15.4286 7.04931 15.938C7.04931 15.938 7.04931 16.0108 6.82902 15.8652C6.60873 15.8652 6.60873 15.8652 6.46187 15.938C6.46187 15.938 6.38844 15.938 6.38844 16.0108C6.16815 16.0836 6.16815 15.7925 6.16815 15.7925C6.16815 15.7925 6.09472 15.5014 6.09472 15.2103C6.09472 15.2103 6.02129 15.0647 6.02129 14.9919C6.02129 14.9919 6.46187 14.628 6.75559 14.7008C6.97588 14.7736 7.34303 14.9919 7.34303 14.9919Z" fill="white"/>
<path d="M6.68215 15.283C6.68215 15.283 6.68215 15.2103 6.90244 15.283C7.0493 15.3558 7.0493 15.6469 7.0493 15.6469C7.0493 15.6469 7.0493 15.5741 6.97587 15.5741C6.97587 15.5014 6.82901 15.5014 6.90244 15.5741C6.90244 15.6469 6.82901 15.7925 6.82901 15.7925C6.75558 15.7197 6.53529 15.7197 6.53529 15.7197C6.53529 15.7197 6.53529 15.7197 6.46186 15.5741C6.46186 15.4286 6.38843 15.4286 6.38843 15.4286C6.46186 15.1375 6.68215 15.283 6.68215 15.283Z" fill="white"/>
</svg>
